<?xml version="1.0"?>
<svg width="16" height="16" xmlns="http://www.w3.org/2000/svg" xmlns:svg="http://www.w3.org/2000/svg">
 <g class="layer">
  <title>Layer 1</title>
  <g id="eye-on">
   <rect fill="white" height="16" id="svg_1" width="16" x="0" y="-0.89"/>
   <path d="m8,5.38c-0.58,0 -1.13,0.23 -1.54,0.64c-0.41,0.41 -0.64,0.97 -0.64,1.54c0,0.58 0.23,1.14 0.64,1.55c0.41,0.41 0.96,0.64 1.54,0.64c0.58,0 1.13,-0.23 1.54,-0.64c0.41,-0.41 0.64,-0.97 0.64,-1.55c0,-0.57 -0.23,-1.13 -0.64,-1.54c-0.41,-0.41 -0.96,-0.64 -1.54,-0.64zm0,5.82c-0.96,0 -1.89,-0.38 -2.57,-1.06c-0.68,-0.69 -1.07,-1.61 -1.07,-2.58c0,-0.96 0.39,-1.88 1.07,-2.57c0.68,-0.68 1.61,-1.06 2.57,-1.06c0.96,0 1.89,0.38 2.57,1.06c0.68,0.69 1.07,1.61 1.07,2.57c0,0.97 -0.39,1.89 -1.07,2.58c-0.68,0.68 -1.61,1.06 -2.57,1.06zm0,-9.09c-3.64,0 -6.74,2.26 -8,5.45c1.26,3.2 4.36,5.46 8,5.46c3.64,0 6.74,-2.26 8,-5.46c-1.26,-3.19 -4.36,-5.45 -8,-5.45z" fill="#373740" id="Vector"/>
  </g>
 </g>
</svg>