<svg width="47" height="19" viewBox="0 0 47 19" fill="none" xmlns="http://www.w3.org/2000/svg">
<path d="M3.6 5.1H14.4V15.5C14.4 16.2732 13.7732 16.9 13 16.9H5C4.2268 16.9 3.6 16.2732 3.6 15.5V5.1Z" stroke="#9FA6B2" stroke-width="1.2"/>
<path d="M6.48387 3.0741C6.72102 2.5998 7.20579 2.3002 7.73607 2.3002H10.2639C10.7942 2.3002 11.279 2.5998 11.5161 3.0741L12.5292 5.1002H5.47082L6.48387 3.0741Z" stroke="#9FA6B2" stroke-width="1.2"/>
<rect x="1.5" y="4.5" width="15" height="1.2" rx="0.6" fill="#9FA6B2"/>
<rect x="9.6001" y="7.5" width="7" height="1.2" rx="0.6" transform="rotate(90 9.6001 7.5)" fill="#9FA6B2"/>
<rect x="12.1997" y="7.5" width="7" height="1.2" rx="0.6" transform="rotate(90 12.1997 7.5)" fill="#9FA6B2"/>
<rect x="7.2002" y="7.5" width="7" height="1.2" rx="0.6" transform="rotate(90 7.2002 7.5)" fill="#9FA6B2"/>
<path d="M26.8343 5.81008C26.8246 7.35704 27.8301 8.83149 29.7493 9.45511L28.9855 10.6395C27.5981 10.1899 26.6167 9.26174 26.0849 8.09185C25.5435 9.35843 24.538 10.3446 23.0925 10.828L22.3142 9.61948C24.3108 8.97652 25.3066 7.38605 25.3115 5.68439V4.49517H26.8343V5.81008ZM23.924 13.0953V11.8771H32.1616V16.2086H30.634V13.0953H23.924ZM30.634 11.3356V3.86188H32.1616V6.96064H33.8874V8.23688H32.1616V11.3356H30.634ZM45.141 3.86188V16.2086H43.7004V3.86188H45.141ZM34.293 12.7086C36.0768 11.616 36.86 9.38743 36.86 7.23619V6.41436H34.7136V5.18646H40.3213V6.41436H38.3247V7.23619C38.3199 9.31975 39.0692 11.413 40.8386 12.4282L39.9442 13.5449C38.7985 12.8681 38.0347 11.6934 37.6093 10.2866C37.1742 11.8094 36.3862 13.1098 35.2212 13.8301L34.293 12.7086ZM39.4221 9.3971V8.1692H41.2011V4.09392H42.6272V15.614H41.2011V9.3971H39.4221Z" fill="#9FA6B2"/>
</svg>
