<svg xmlns="http://www.w3.org/2000/svg" width="19" height="19" fill="none"><path stroke="#9FA6B2" stroke-width="1.2" d="M4.1 5.1h10.8v10.4a1.4 1.4 0 0 1-1.4 1.4h-8a1.4 1.4 0 0 1-1.4-1.4V5.1ZM6.984 3.074A1.4 1.4 0 0 1 8.236 2.3h2.528c.53 0 1.015.3 1.252.774L13.03 5.1H5.971l1.013-2.026Z"/><rect width="15" height="1.2" x="2" y="4.5" fill="#9FA6B2" rx=".6"/><rect width="7" height="1.2" x="10.1" y="7.5" fill="#9FA6B2" rx=".6" transform="rotate(90 10.1 7.5)"/><rect width="7" height="1.2" x="12.7" y="7.5" fill="#9FA6B2" rx=".6" transform="rotate(90 12.7 7.5)"/><rect width="7" height="1.2" x="7.7" y="7.5" fill="#9FA6B2" rx=".6" transform="rotate(90 7.7 7.5)"/></svg>