<svg width="48" height="67" viewBox="0 0 48 67" fill="none" xmlns="http://www.w3.org/2000/svg">
<rect x="3" width="42" height="42" rx="21" fill="#FEE500"/>
<g clip-path="url(#clip0_11630_3635)">
<path opacity="0.902" fill-rule="evenodd" clip-rule="evenodd" d="M24 12.9438C19.29 12.9438 15 16.7298 15 19.9328C15 22.3328 16.558 24.4498 18.931 25.7078L17.933 29.3738C17.844 29.6988 18.213 29.9568 18.496 29.7698L22.873 26.8648C23.242 26.9008 23.618 26.9218 24 26.9218C28.97 26.9218 33 23.7928 33 19.9328C33 16.7298 28.97 12.9438 24 12.9438Z" fill="black"/>
</g>
<path d="M1.51203 54.51H6.77703C6.77703 57.89 5.63303 60.971 1.46003 63.051L0.875031 62.232C3.03303 61.166 4.32003 59.84 5.03503 58.28L1.10903 58.657L0.927031 57.721L5.36003 57.422C5.55503 56.772 5.67203 56.096 5.71103 55.381H1.51203V54.51ZM11.613 58.033V58.917H9.74103V64.962H8.67503V53.301H9.74103V58.033H11.613ZM13.471 54.51H18.736C18.736 57.89 17.592 60.971 13.419 63.051L12.834 62.232C14.992 61.166 16.279 59.84 16.994 58.28L13.068 58.657L12.886 57.721L17.319 57.422C17.514 56.772 17.631 56.096 17.67 55.381H13.471V54.51ZM23.572 58.033V58.917H21.7V64.962H20.634V53.301H21.7V58.033H23.572ZM26.743 57.123C26.743 58.462 28.108 59.333 29.967 59.333C31.826 59.333 33.178 58.462 33.178 57.123C33.178 55.784 31.826 54.913 29.967 54.913C28.108 54.913 26.743 55.784 26.743 57.123ZM30.5 62.583H35.271V63.467H24.676V62.583H29.421V60.152C27.25 59.996 25.716 58.839 25.716 57.123C25.716 55.264 27.497 54.068 29.967 54.068C32.424 54.068 34.192 55.264 34.192 57.123C34.192 58.839 32.671 59.996 30.5 60.152V62.583ZM37.818 62.349V61.491H45.826V64.975H44.76V62.349H37.818ZM42.446 59.593H47.191V60.451H36.635V59.593H41.38V58.358H38.026V53.613H45.891V54.445H39.092V55.55H45.579V56.356H39.092V57.526H45.956V58.358H42.446V59.593Z" fill="#444444"/>
<defs>
<clipPath id="clip0_11630_3635">
<rect width="18" height="18" fill="white" transform="translate(15 12)"/>
</clipPath>
</defs>
</svg>
