<svg width="52" height="67" viewBox="0 0 52 67" fill="none" xmlns="http://www.w3.org/2000/svg">
<rect x="5" width="42" height="42" rx="21" fill="#9D9D9D" fill-opacity="0.04"/>
<g clip-path="url(#clip0_11630_3645)">
<path fill-rule="evenodd" clip-rule="evenodd" d="M26.5815 14.063C27.4302 13.2433 28.5669 12.7897 29.7468 12.8C30.9267 12.8102 32.0554 13.2835 32.8897 14.1178C33.724 14.9522 34.1973 16.0808 34.2075 17.2607C34.2178 18.4406 33.7642 19.5773 32.9445 20.426L32.9354 20.4353L30.6855 22.6852C30.2293 23.1416 29.6803 23.4945 29.0757 23.72C28.4711 23.9455 27.8251 24.0384 27.1815 23.9923C26.5378 23.9462 25.9116 23.7622 25.3454 23.4529C24.7791 23.1435 24.286 22.7159 23.8995 22.1992C23.6514 21.8675 23.7191 21.3975 24.0508 21.1494C24.3825 20.9013 24.8525 20.9691 25.1006 21.3007C25.3583 21.6452 25.687 21.9303 26.0645 22.1365C26.4421 22.3428 26.8595 22.4654 27.2886 22.4961C27.7177 22.5269 28.1484 22.465 28.5514 22.3146C28.9545 22.1643 29.3205 21.929 29.6246 21.6247L29.6247 21.6246L31.8699 19.3795C32.4136 18.8142 32.7144 18.0583 32.7076 17.2737C32.7008 16.4871 32.3853 15.7347 31.829 15.1785C31.2728 14.6223 30.5204 14.3068 29.7338 14.2999C28.9489 14.2931 28.1927 14.5942 27.6273 15.1384L26.3413 16.4168C26.0476 16.7089 25.5727 16.7075 25.2807 16.4138C24.9886 16.12 24.99 15.6451 25.2838 15.3531L26.5738 14.0706L26.5815 14.063Z" fill="#6D6AFE"/>
<path fill-rule="evenodd" clip-rule="evenodd" d="M22.9243 18.2799C23.5289 18.0544 24.1749 17.9615 24.8185 18.0076C25.4621 18.0537 26.0883 18.2377 26.6546 18.547C27.2209 18.8564 27.714 19.284 28.1005 19.8007C28.3486 20.1324 28.2808 20.6024 27.9491 20.8505C27.6175 21.0986 27.1474 21.0308 26.8993 20.6992C26.6417 20.3547 26.3129 20.0696 25.9354 19.8634C25.5579 19.6571 25.1404 19.5345 24.7113 19.5038C24.2823 19.473 23.8516 19.5349 23.4485 19.6853C23.0455 19.8356 22.6795 20.0709 22.3753 20.3752L20.1301 22.6204C19.5863 23.1857 19.2855 23.9416 19.2923 24.7262C19.2992 25.5128 19.6147 26.2652 20.1709 26.8214C20.7271 27.3776 21.4796 27.6931 22.2662 27.7C23.0507 27.7068 23.8066 27.406 24.3719 26.8622L25.6496 25.5846C25.9425 25.2917 26.4173 25.2917 26.7102 25.5846C27.0031 25.8775 27.0031 26.3524 26.7102 26.6453L25.4277 27.9278L25.4184 27.9369C24.5697 28.7566 23.433 29.2102 22.2531 29.1999C21.0732 29.1897 19.9446 28.7164 19.1103 27.8821C18.2759 27.0477 17.8027 25.9191 17.7924 24.7392C17.7822 23.5593 18.2357 22.4226 19.0554 21.5739L19.0646 21.5646L21.3145 19.3147C21.3144 19.3147 21.3145 19.3147 21.3145 19.3147C21.7707 18.8584 22.3197 18.5054 22.9243 18.2799Z" fill="#6D6AFE"/>
</g>
<path d="M10.5109 53.301V60.477H9.44491V53.301H10.5109ZM8.02791 58.527L8.14491 59.385C6.23391 59.697 4.64791 59.762 2.48991 59.762H1.55391V56.434H5.76591V54.9H1.51491V54.029H6.81891V57.253H2.59391V58.891C4.66091 58.891 6.18191 58.826 8.02791 58.527ZM6.64991 64.104C8.44391 64.104 9.50991 63.636 9.50991 62.83C9.50991 62.037 8.44391 61.569 6.64991 61.569C4.88191 61.569 3.81591 62.037 3.81591 62.83C3.81591 63.636 4.88191 64.104 6.64991 64.104ZM6.64991 60.724C9.08091 60.724 10.5759 61.491 10.5759 62.83C10.5759 64.182 9.08091 64.949 6.64991 64.949C4.23191 64.949 2.74991 64.182 2.74991 62.83C2.74991 61.491 4.23191 60.724 6.64991 60.724ZM13.8639 58.033L21.0919 57.721C21.1179 57.11 21.1179 56.512 21.1179 55.914V55.355H14.1629V54.484H22.1579V55.914C22.1579 57.643 22.1579 59.216 21.6509 61.608L20.6109 61.504C20.8579 60.386 20.9879 59.424 21.0529 58.527L14.0199 58.917L13.8639 58.033ZM12.9149 62.466H23.4579V63.337H12.9149V62.466ZM29.6871 62.18V61.322H37.7601V64.962H36.6941V62.18H29.6871ZM30.9611 55.732V57.084H36.6291V55.732H30.9611ZM34.3281 59.32H39.0601V60.191H28.5041V59.32H33.2621V57.929H29.9081V53.574H30.9611V54.9H36.6291V53.574H37.6821V57.929H34.3281V59.32ZM44.3891 54.315V56.408C44.3891 58.462 45.7151 60.581 47.3531 61.4L46.6901 62.245C45.4551 61.582 44.4021 60.217 43.8691 58.618C43.3621 60.321 42.2831 61.777 40.9701 62.479L40.3331 61.621C42.0101 60.763 43.3361 58.527 43.3361 56.408V54.315H44.3891ZM51.3701 58.033V58.917H49.4461V64.962H48.3801V53.314H49.4461V58.033H51.3701Z" fill="#444444"/>
<defs>
<clipPath id="clip0_11630_3645">
<rect width="18" height="18" fill="white" transform="translate(17 12)"/>
</clipPath>
</defs>
</svg>
