<svg xmlns="http://www.w3.org/2000/svg" width="42" height="42" fill="none">
  <rect width="42" height="42" fill="#9D9D9D" fill-opacity=".04" rx="21"/>
  <g fill="#6D6AFE" fill-rule="evenodd" clip-path="url(#a)" clip-rule="evenodd">
    <path d="M21.581 14.063a4.5 4.5 0 0 1 6.364 6.363l-.01.01-2.25 2.25a4.499 4.499 0 0 1-6.786-.487.75.75 0 0 1 1.202-.898 2.998 2.998 0 0 0 4.524.324l2.245-2.245a3 3 0 0 0-4.243-4.242l-1.286 1.279a.75.75 0 1 1-1.057-1.064l1.29-1.282.007-.008Z"/>
    <path d="M17.924 18.28a4.5 4.5 0 0 1 5.177 1.52.75.75 0 0 1-1.201.9 3 3 0 0 0-4.524-.325L15.13 22.62a3 3 0 0 0 4.242 4.242l1.278-1.277a.75.75 0 0 1 1.06 1.06l-1.282 1.283-.01.009a4.5 4.5 0 0 1-6.362-6.363l.009-.01 2.25-2.25a4.501 4.501 0 0 1 1.61-1.034Z"/>
  </g>
  <defs>
    <clipPath id="a">
      <path fill="#fff" d="M12 12h18v18H12z"/>
    </clipPath>
  </defs>
</svg>