<svg width="800" height="69" viewBox="0 0 800 69" fill="none" xmlns="http://www.w3.org/2000/svg">
<rect x="0.5" y="0.5" width="799" height="68" rx="14.5" fill="white"/>
<path fill-rule="evenodd" clip-rule="evenodd" d="M30.6461 26.7922C31.5891 25.8814 32.8521 25.3775 34.1631 25.3889C35.4741 25.4003 36.7281 25.9261 37.6552 26.8531C38.5822 27.7802 39.108 29.0342 39.1194 30.3452C39.1308 31.6562 38.6269 32.9192 37.7161 33.8622L37.7059 33.8726L35.206 36.3725C34.6991 36.8795 34.0891 37.2717 33.4174 37.5222C32.7456 37.7728 32.0278 37.876 31.3127 37.8248C30.5975 37.7736 29.9018 37.5692 29.2726 37.2254C28.6434 36.8816 28.0955 36.4066 27.666 35.8325C27.3903 35.4639 27.4656 34.9417 27.8342 34.666C28.2027 34.3903 28.725 34.4656 29.0006 34.8342C29.2869 35.2169 29.6522 35.5336 30.0717 35.7628C30.4911 35.992 30.955 36.1282 31.4317 36.1624C31.9085 36.1965 32.387 36.1277 32.8349 35.9607C33.2827 35.7936 33.6894 35.5322 34.0273 35.1942L34.0274 35.1941L36.522 32.6995C37.1262 32.0713 37.4604 31.2314 37.4528 30.3597C37.4452 29.4857 37.0947 28.6497 36.4766 28.0316C35.8586 27.4136 35.0226 27.0631 34.1486 27.0555C33.2765 27.0479 32.4363 27.3824 31.808 27.9871L30.3792 29.4076C30.0528 29.7321 29.5252 29.7306 29.2007 29.4042C28.8762 29.0778 28.8777 28.5502 29.2041 28.2257L30.6375 26.8007L30.6461 26.7922Z" fill="#6D6AFE"/>
<path fill-rule="evenodd" clip-rule="evenodd" d="M26.5826 31.4774C27.2544 31.2269 27.9722 31.1237 28.6873 31.1749C29.4025 31.2261 30.0982 31.4305 30.7274 31.7743C31.3566 32.118 31.9045 32.5931 32.334 33.1672C32.6096 33.5358 32.5344 34.058 32.1658 34.3337C31.7973 34.6093 31.275 34.5341 30.9994 34.1655C30.7131 33.7828 30.3478 33.4661 29.9283 33.2369C29.5089 33.0077 29.045 32.8714 28.5683 32.8373C28.0915 32.8031 27.613 32.8719 27.1651 33.039C26.7173 33.2061 26.3106 33.4675 25.9727 33.8055L23.478 36.3002C22.8738 36.9284 22.5396 37.7683 22.5472 38.64C22.5548 39.514 22.9053 40.35 23.5233 40.968C24.1414 41.5861 24.9774 41.9366 25.8514 41.9442C26.7231 41.9518 27.563 41.6176 28.1911 41.0134L29.6107 39.5938C29.9362 39.2683 30.4638 39.2683 30.7893 39.5938C31.1147 39.9192 31.1147 40.4469 30.7893 40.7723L29.3643 42.1973L29.3539 42.2074C28.4109 43.1182 27.1479 43.6222 25.8369 43.6108C24.5259 43.5994 23.2719 43.0736 22.3448 42.1465C21.4178 41.2195 20.892 39.9654 20.8806 38.6544C20.8692 37.3435 21.3731 36.0805 22.2839 35.1374L22.2941 35.1271L24.794 32.6272C24.7939 32.6273 24.794 32.6272 24.794 32.6272C25.3008 32.1202 25.9109 31.728 26.5826 31.4774Z" fill="#6D6AFE"/>
<path d="M64.0312 27.8906V36.4375H62.8125V27.8906H64.0312ZM53.2656 29.7969V28.7656H59.6094V32.5781H54.4844V34.5469C56.9688 34.5469 58.8203 34.4766 61.0781 34.1094L61.2188 35.125C58.8828 35.5078 56.9844 35.5703 54.4219 35.5781H53.2969V31.6094H58.3906V29.7969H53.2656ZM54.7344 39.2344C54.7266 37.6406 56.5 36.7188 59.4219 36.7188C62.3438 36.7188 64.125 37.6406 64.125 39.2344C64.125 40.8203 62.3438 41.7344 59.4219 41.7344C56.5 41.7344 54.7266 40.8203 54.7344 39.2344ZM55.9375 39.2344C55.9453 40.1875 57.2578 40.7578 59.4219 40.75C61.5781 40.7578 62.8984 40.1875 62.8906 39.2344C62.8984 38.2812 61.5781 37.7031 59.4219 37.7031C57.2578 37.7031 55.9453 38.2812 55.9375 39.2344ZM77.4688 29.2969V31.0156C77.4766 33.0625 77.4766 34.9531 76.8906 37.7656L75.6562 37.6562C75.9688 36.3203 76.1172 35.1641 76.1953 34.0859L67.7188 34.5469L67.5469 33.5312L76.25 33.1719C76.2734 32.4375 76.2812 31.7266 76.2812 31.0156V30.3281H67.9219V29.2969H77.4688ZM66.3906 39.8125V38.7812H79.0469V39.8125H66.3906ZM92.9219 34.3281V35.2969H80.2031V34.3281H92.9219ZM81.7344 37.3281V36.4062H91.3281V39.3594H82.9844V40.6875H91.7812V41.5781H81.75V38.5156H90.1094V37.3281H81.7344ZM81.8125 29.1875V28.2969H91.2812V31.1719H83.0781V32.3906H91.5312V33.2812H81.8594V30.3281H90.0469V29.1875H81.8125ZM110.719 36.2812V37.3125H104.984V41.7969H103.781V37.3125H98.0625V36.2812H110.719ZM98.8594 34.2188C101.336 33.8828 103.773 32.3672 103.781 30.625V30.6094H99.2969V29.6094H103.781V27.875H104.984V29.6094H109.5V30.6094H105V30.625C105 32.3594 107.422 33.8828 109.906 34.2188L109.453 35.2031C107.305 34.875 105.281 33.7969 104.398 32.2891C103.516 33.8125 101.461 34.875 99.3125 35.2031L98.8594 34.2188ZM122.641 27.875V33.5312H124.891V34.5625H122.641V41.7656H121.422V27.875H122.641ZM111.984 38.1562C115.57 36.375 117.523 33.6953 117.805 30.4062H112.625V29.375H119.047C119.039 33.3047 117.195 36.8906 112.672 39.125L111.984 38.1562ZM132.656 30.2812V31.2812H125.688V30.2812H128.578V28.2969H129.797V30.2812H132.656ZM126.188 35.375C126.188 33.5312 127.445 32.2266 129.172 32.2188C130.922 32.2266 132.172 33.5312 132.188 35.375C132.172 37.2422 130.922 38.5547 129.172 38.5625C127.445 38.5547 126.188 37.2422 126.188 35.375ZM127.281 35.375C127.281 36.6094 128.07 37.4922 129.172 37.4844C130.281 37.4922 131.094 36.6094 131.094 35.375C131.094 34.1562 130.281 33.2656 129.172 33.25C128.07 33.2656 127.281 34.1562 127.281 35.375ZM133.375 41.0781V28.2188H134.531V33.7344H136.375V27.875H137.547V41.7656H136.375V34.75H134.531V41.0781H133.375ZM156.281 38.9688V39.9844H143.562V38.9688H149.281V35.9688H145.062V28.8594H146.297V31.375H153.516V28.8594H154.719V35.9688H150.484V38.9688H156.281ZM146.297 34.9688H153.516V32.375H146.297V34.9688ZM161.516 31.8281C161.516 34.0391 162.594 36.4219 164.438 37.5156L163.734 38.4688C162.391 37.6562 161.43 36.1719 160.945 34.4766C160.438 36.3281 159.406 37.9219 158.016 38.7656L157.234 37.8438C159.156 36.7188 160.328 34.2578 160.328 31.875V29.1875H161.516V31.8281ZM162.906 33.9062V32.8594H165.266V28.1719H166.422V41.0625H165.266V33.9062H162.906ZM168.109 41.7656V27.875H169.297V41.7656H168.109ZM183.938 38.9531V39.9844H171.219V38.9531H174.375V35.2109C173.188 34.5938 172.469 33.5938 172.469 32.3281C172.469 30.1797 174.578 28.7656 177.547 28.75C180.516 28.7656 182.625 30.1797 182.625 32.3281C182.625 33.5703 181.93 34.5547 180.781 35.1719V38.9531H183.938ZM173.656 32.3281C173.648 33.8828 175.266 34.9219 177.547 34.9219C179.805 34.9219 181.438 33.8828 181.438 32.3281C181.438 30.7734 179.805 29.75 177.547 29.7656C175.266 29.75 173.648 30.7734 173.656 32.3281ZM175.578 38.9531H179.547V35.6484C178.945 35.8047 178.273 35.8906 177.547 35.8906C176.836 35.8906 176.172 35.8125 175.578 35.6562V38.9531Z" fill="#9FA6B2"/>
<rect x="700" y="16" width="80" height="37" rx="8" fill="url(#paint0_linear_6220_28597)"/>
<path d="M727.17 36.2776V37.5249H722.282V41.2279H720.774V37.5249H715.911V36.2776H727.17ZM716.525 34.3246C718.99 34.0249 720.61 32.7631 720.765 31.5304H716.955V30.3218H720.774V28.8667H722.282V30.3218H726.121V31.5304H722.307C722.456 32.7486 724.066 34.0249 726.527 34.3246L725.976 35.5235C723.931 35.2673 722.345 34.3681 721.538 33.1789C720.735 34.3826 719.135 35.2673 717.076 35.5235L716.525 34.3246ZM737.689 28.8619V33.6865H739.521V34.9482H737.689V41.1892H736.166V28.8619H737.689ZM727.948 37.8149C730.955 36.3066 732.579 34.2086 732.879 31.395H728.605V30.143H734.426C734.416 33.7735 732.912 36.9641 728.803 38.9848L727.948 37.8149ZM749.788 28.8619V33.7831H751.693V35.0352H749.788V41.2086H748.285V28.8619H749.788ZM740.042 31.98V30.7521H742.962V29.0359H744.48V30.7521H747.333V31.98H740.042ZM740.613 35.6878C740.603 33.9814 741.928 32.7776 743.731 32.7776C745.51 32.7776 746.83 33.9814 746.839 35.6878C746.83 37.3943 745.51 38.5932 743.731 38.5932C741.928 38.5932 740.603 37.3943 740.613 35.6878ZM742.068 35.6878C742.058 36.703 742.764 37.346 743.731 37.3363C744.683 37.346 745.375 36.703 745.384 35.6878C745.375 34.6872 744.683 34.0249 743.731 34.0249C742.764 34.0249 742.058 34.6872 742.068 35.6878ZM762.526 28.8619V41.2086H760.994V28.8619H762.526ZM752.292 37.8101C755.526 36.2728 757.025 34.1892 757.295 31.3757H752.92V30.172H758.842C758.838 33.8508 757.411 36.9738 753.09 39.0283L752.292 37.8101Z" fill="#F5F5F5"/>
<rect x="0.5" y="0.5" width="799" height="68" rx="14.5" stroke="#6D6AFE"/>
<defs>
<linearGradient id="paint0_linear_6220_28597" x1="700.1" y1="16" x2="782.765" y2="19.0839" gradientUnits="userSpaceOnUse">
<stop stop-color="#6D6AFE"/>
<stop offset="1" stop-color="#6AE3FE"/>
</linearGradient>
</defs>
</svg>
