<svg width="48" height="67" viewBox="0 0 48 67" fill="none" xmlns="http://www.w3.org/2000/svg">
<rect x="3" width="42" height="42" rx="21" fill="#1877F2"/>
<g clip-path="url(#clip0_11630_3640)">
<path d="M33 21C33 16.032 28.968 12 24 12C19.032 12 15 16.032 15 21C15 25.356 18.096 28.983 22.2 29.82V23.7H20.4V21H22.2V18.75C22.2 17.013 23.613 15.6 25.35 15.6H27.6V18.3H25.8C25.305 18.3 24.9 18.705 24.9 19.2V21H27.6V23.7H24.9V29.955C29.445 29.505 33 25.671 33 21Z" fill="white"/>
</g>
<path d="M2.81203 55.641V61.166C3.29303 61.153 3.77403 61.14 4.26803 61.114V55.641H2.81203ZM5.24303 55.641V61.049C5.65903 61.01 6.08803 60.971 6.46503 60.919L6.53003 61.699C4.72303 62.037 2.27903 62.089 0.758031 62.089L0.654031 61.205C1.00503 61.205 1.39503 61.205 1.83703 61.192V55.641H0.875031V54.783H6.20503V55.641H5.24303ZM7.45303 57.747V53.587H8.45403V64.351H7.45303V58.683H5.86703V57.747H7.45303ZM9.70203 53.314H10.729V64.962H9.70203V53.314ZM21.206 53.301H22.272V64.988H21.206V53.301ZM16.123 54.198C17.852 54.198 19.087 55.784 19.087 58.267C19.087 60.75 17.852 62.336 16.123 62.336C14.394 62.336 13.159 60.75 13.159 58.267C13.159 55.784 14.394 54.198 16.123 54.198ZM16.123 55.16C14.979 55.16 14.173 56.382 14.173 58.267C14.173 60.165 14.979 61.387 16.123 61.387C17.254 61.387 18.06 60.165 18.06 58.267C18.06 56.382 17.254 55.16 16.123 55.16ZM34.738 59.164L34.257 60.048C32.489 59.645 30.669 58.397 29.928 56.681C29.187 58.384 27.367 59.632 25.612 60.048L25.131 59.164C27.172 58.761 29.369 57.006 29.369 55.017V54.12H30.487V55.017C30.487 57.006 32.697 58.774 34.738 59.164ZM24.689 62.518H35.258V63.402H24.689V62.518ZM44.76 57.084V55.732H39.092V57.084H44.76ZM45.813 53.574V57.929H38.039V53.574H39.092V54.9H44.76V53.574H45.813ZM47.191 59.879H42.446V61.244H45.891V64.975H44.825V62.102H37.818V61.244H41.38V59.879H36.635V59.008H47.191V59.879Z" fill="#444444"/>
<defs>
<clipPath id="clip0_11630_3640">
<rect width="18" height="18" fill="white" transform="translate(15 12)"/>
</clipPath>
</defs>
</svg>
