<svg width="74" height="19" viewBox="0 0 74 19" fill="none" xmlns="http://www.w3.org/2000/svg">
<path fill-rule="evenodd" clip-rule="evenodd" d="M12.3785 2.4083C12.8194 1.96742 13.5331 1.96742 13.974 2.4083L16.6716 5.10595C17.1125 5.54683 17.1125 6.2605 16.6716 6.70139L7.67572 15.6973C7.5931 15.7799 7.48592 15.8335 7.37025 15.85L3.2526 16.4382C3.08434 16.4623 2.91458 16.4057 2.7944 16.2855C2.67421 16.1653 2.61763 15.9956 2.64166 15.8273L3.2299 11.7097C3.24642 11.594 3.30002 11.4868 3.38263 11.4042L12.3785 2.4083ZM13.2103 3.17197C13.1912 3.15286 13.1613 3.15286 13.1422 3.17197L4.27359 12.0406L3.81263 15.2673L7.03933 14.8063L15.9079 5.93771C15.927 5.91859 15.927 5.88874 15.9079 5.86962L13.2103 3.17197Z" fill="#9FA6B2"/>
<path fill-rule="evenodd" clip-rule="evenodd" d="M15.3229 3.75728C15.5338 3.96817 15.5338 4.31008 15.3229 4.52096L8.26412 11.5798C8.05324 11.7907 7.71133 11.7907 7.50045 11.5798C7.28956 11.3689 7.28956 11.027 7.50045 10.8161L14.5593 3.75728C14.7702 3.5464 15.1121 3.5464 15.3229 3.75728Z" fill="#9FA6B2"/>
<path fill-rule="evenodd" clip-rule="evenodd" d="M3.38277 11.4043C3.59365 11.1934 3.93556 11.1934 4.14645 11.4043L7.67586 14.9337C7.88674 15.1446 7.88674 15.4865 7.67586 15.6973C7.46498 15.9082 7.12307 15.9082 6.91218 15.6973L3.38277 12.1679C3.17189 11.957 3.17189 11.6151 3.38277 11.4043Z" fill="#9FA6B2"/>
<path d="M32.6934 3.86188V16.2376H31.1609V3.86188H32.6934ZM22.8073 9.12155C22.8025 6.45304 24.1609 4.76105 26.0366 4.75621C27.8881 4.76105 29.2514 6.45304 29.2514 9.12155C29.2514 11.8094 27.8881 13.5014 26.0366 13.4965C24.1609 13.5014 22.8025 11.8094 22.8073 9.12155ZM24.2721 9.12155C24.2721 11.0214 24.9827 12.1236 26.0366 12.1236C27.0711 12.1236 27.7818 11.0214 27.7818 9.12155C27.7818 7.23619 27.0711 6.12914 26.0366 6.12914C24.9827 6.12914 24.2721 7.23619 24.2721 9.12155ZM45.7937 10.1416V11.3501H34.496V10.1416H45.7937ZM35.898 5.30249V4.11809H44.3966V7.28453H37.4352V8.17403H44.6383V9.33909H35.927V6.18232H42.8786V5.30249H35.898ZM35.9753 16.0635V12.2348H44.4304V16.0635H35.9753ZM37.4643 14.8356H42.927V13.4434H37.4643V14.8356ZM60.2825 3.87155V12.989H58.7646V9.88052H56.2798V10.9876H50.4883V4.6837H52.016V6.67541H54.7763V4.6837H56.2798V6.00345H58.7646V3.87155H60.2825ZM52.016 9.77901H54.7763V7.8453H52.016V9.77901ZM52.1368 15.9765V12.0898H53.6741V14.7438H60.5533V15.9765H52.1368ZM56.2798 8.65262H58.7646V7.23619H56.2798V8.65262ZM72.3821 3.87155V11.0891H70.8642V9.72583H67.9201V8.49793H70.8642V7.15884H68.041C67.2627 9.12638 65.4547 10.5041 62.762 11.2535L62.1577 10.0546C65.0437 9.26657 66.5859 7.8018 66.8276 5.96478H62.8103V4.72721H68.4809C68.4809 5.15746 68.4471 5.56354 68.3794 5.95511H70.8642V3.87155H72.3821ZM64.1011 13.6802C64.0962 12.1671 65.7592 11.2293 68.2924 11.2293C70.7965 11.2293 72.4595 12.1671 72.4643 13.6802C72.4595 15.203 70.7965 16.1554 68.2924 16.1506C65.7592 16.1554 64.0962 15.203 64.1011 13.6802ZM65.619 13.6802C65.6142 14.4972 66.6294 14.942 68.2924 14.942C69.9263 14.942 70.9367 14.4972 70.9464 13.6802C70.9367 12.8633 69.9263 12.4137 68.2924 12.4233C66.6294 12.4137 65.6142 12.8633 65.619 13.6802Z" fill="#9FA6B2"/>
</svg>
