<svg width="18" height="19" viewBox="0 0 18 19" fill="none" xmlns="http://www.w3.org/2000/svg">
<g id="pen">
<path id="Stroke 1 (Stroke)" fill-rule="evenodd" clip-rule="evenodd" d="M12.3785 2.4083C12.8194 1.96742 13.5331 1.96742 13.974 2.4083L16.6716 5.10595C17.1125 5.54683 17.1125 6.2605 16.6716 6.70139L7.67572 15.6973C7.5931 15.7799 7.48592 15.8335 7.37025 15.85L3.2526 16.4382C3.08434 16.4623 2.91458 16.4057 2.7944 16.2855C2.67421 16.1653 2.61763 15.9956 2.64166 15.8273L3.2299 11.7097C3.24642 11.594 3.30002 11.4868 3.38263 11.4042L12.3785 2.4083ZM13.2103 3.17197C13.1912 3.15286 13.1613 3.15286 13.1422 3.17197L4.27359 12.0406L3.81263 15.2673L7.03933 14.8063L15.9079 5.93771C15.927 5.91859 15.927 5.88874 15.9079 5.86962L13.2103 3.17197Z" fill="#9FA6B2"/>
<path id="Stroke 3 (Stroke)" fill-rule="evenodd" clip-rule="evenodd" d="M15.3229 3.75728C15.5338 3.96817 15.5338 4.31008 15.3229 4.52096L8.26412 11.5798C8.05324 11.7907 7.71133 11.7907 7.50045 11.5798C7.28956 11.3689 7.28956 11.027 7.50045 10.8161L14.5593 3.75728C14.7702 3.5464 15.1121 3.5464 15.3229 3.75728Z" fill="#9FA6B2"/>
<path id="Stroke 5 (Stroke)" fill-rule="evenodd" clip-rule="evenodd" d="M3.38277 11.4043C3.59365 11.1934 3.93556 11.1934 4.14645 11.4043L7.67586 14.9337C7.88674 15.1446 7.88674 15.4865 7.67586 15.6973C7.46498 15.9082 7.12307 15.9082 6.91218 15.6973L3.38277 12.1679C3.17189 11.957 3.17189 11.6151 3.38277 11.4043Z" fill="#9FA6B2"/>
</g>
</svg>
