<svg xmlns="http://www.w3.org/2000/svg" width="19" height="19" fill="none"><path fill="#9FA6B2" fill-rule="evenodd" d="M12.879 2.408c.44-.44 1.154-.44 1.595 0l2.698 2.698c.44.44.44 1.155 0 1.595l-8.996 8.996a.54.54 0 0 1-.306.153l-4.117.588a.54.54 0 0 1-.611-.61l.588-4.118a.54.54 0 0 1 .153-.306l8.995-8.996Zm.831.764a.048.048 0 0 0-.068 0l-8.868 8.869-.461 3.226 3.226-.46 8.869-8.87a.048.048 0 0 0 0-.067L13.71 3.172Z" clip-rule="evenodd"/><path fill="#9FA6B2" fill-rule="evenodd" d="M15.823 3.757a.54.54 0 0 1 0 .764l-7.059 7.058A.54.54 0 1 1 8 10.816l7.06-7.059a.54.54 0 0 1 .763 0ZM3.883 11.404a.54.54 0 0 1 .763 0l3.53 3.53a.54.54 0 1 1-.764.763l-3.53-3.53a.54.54 0 0 1 0-.763Z" clip-rule="evenodd"/></svg>