<svg width="47" height="19" viewBox="0 0 47 19" fill="none" xmlns="http://www.w3.org/2000/svg">
<g clip-path="url(#clip0_11630_3191)">
<path fill-rule="evenodd" clip-rule="evenodd" d="M7.3951 11.045C7.1315 10.7813 7.1315 10.354 7.3951 10.0904L13.8296 3.52012H10.368C9.99525 3.52012 9.69304 3.21792 9.69304 2.84512C9.69304 2.47233 9.99525 2.17012 10.368 2.17012H15.4592C15.832 2.17012 16.1342 2.47233 16.1342 2.84512L16.1342 7.93629C16.1342 8.30909 15.832 8.61129 15.4592 8.61129C15.0864 8.61129 14.7842 8.30908 14.7842 7.93629L14.7842 4.47472L8.3497 11.045C8.0861 11.3086 7.65871 11.3086 7.3951 11.045Z" fill="#9FA6B2"/>
<path fill-rule="evenodd" clip-rule="evenodd" d="M4.4999 4.7748C3.87858 4.7748 3.3749 5.27848 3.3749 5.8998V13.9998C3.3749 14.6211 3.87858 15.1248 4.4999 15.1248H12.5999C13.2212 15.1248 13.7249 14.6211 13.7249 13.9998V10.8498C13.7249 10.477 14.0271 10.1748 14.3999 10.1748C14.7727 10.1748 15.0749 10.477 15.0749 10.8498V13.9998C15.0749 15.3667 13.9668 16.4748 12.5999 16.4748H4.4999C3.133 16.4748 2.0249 15.3667 2.0249 13.9998V5.8998C2.0249 4.5329 3.133 3.4248 4.4999 3.4248H7.6499C8.02269 3.4248 8.3249 3.72701 8.3249 4.0998C8.3249 4.4726 8.02269 4.7748 7.6499 4.7748H4.4999Z" fill="#9FA6B2"/>
</g>
<path d="M27.9751 11.587C30.663 11.5919 32.355 12.4378 32.3646 13.9026C32.355 15.3432 30.663 16.2037 27.9751 16.1989C25.3115 16.2037 23.605 15.3432 23.605 13.9026C23.605 12.4378 25.3115 11.5919 27.9751 11.587ZM22.4351 10.6878V9.45511H26.7811V7.21685H28.2845V9.45511H33.6506V10.6878H22.4351ZM23.721 5.64572V4.44199H32.2873V5.46685C32.2873 6.4482 32.2873 7.48757 31.9392 8.75898L30.4406 8.60912C30.7452 7.41022 30.7645 6.54489 30.7693 5.64572H23.721ZM25.1229 13.9026C25.1133 14.6326 26.1913 15.029 27.9751 15.029C29.7686 15.029 30.8467 14.6326 30.8515 13.9026C30.8467 13.1533 29.7686 12.7327 27.9751 12.7279C26.1913 12.7327 25.1133 13.1533 25.1229 13.9026ZM45.7937 10.7845V12.0173H43.0381V16.2086H41.5009V12.0173H38.755V16.2086H37.1984V12.0173H34.496V10.7845H45.7937ZM35.6804 7.06215C35.6756 5.37983 37.4836 4.3018 40.1134 4.3018C42.7481 4.3018 44.5658 5.37983 44.5658 7.06215C44.5658 8.71547 42.7481 9.7645 40.1134 9.75967C37.4836 9.7645 35.6756 8.71547 35.6804 7.06215ZM37.2467 7.06215C37.237 8.00483 38.3683 8.55594 40.1134 8.55594C41.8683 8.55594 42.9946 8.00483 42.9995 7.06215C42.9946 6.09047 41.8683 5.52486 40.1134 5.52486C38.3683 5.52486 37.237 6.09047 37.2467 7.06215Z" fill="#9FA6B2"/>
<defs>
<clipPath id="clip0_11630_3191">
<rect width="18" height="18" fill="white" transform="translate(0 0.5)"/>
</clipPath>
</defs>
</svg>
