<svg width="193" height="19" viewBox="0 0 193 19" fill="none" xmlns="http://www.w3.org/2000/svg">
<g clip-path="url(#clip0_6220_28503)">
<path fill-rule="evenodd" clip-rule="evenodd" d="M7.8951 11.045C7.6315 10.7813 7.6315 10.354 7.8951 10.0904L14.3296 3.52012H10.868C10.4953 3.52012 10.193 3.21792 10.193 2.84512C10.193 2.47233 10.4952 2.17012 10.868 2.17012H15.9592C16.332 2.17012 16.6342 2.47233 16.6342 2.84512L16.6342 7.93629C16.6342 8.30909 16.332 8.61129 15.9592 8.61129C15.5864 8.61129 15.2842 8.30908 15.2842 7.93629L15.2842 4.47472L8.8497 11.045C8.5861 11.3086 8.15871 11.3086 7.8951 11.045Z" fill="#9FA6B2"/>
<path fill-rule="evenodd" clip-rule="evenodd" d="M4.9999 4.77505C4.37858 4.77505 3.8749 5.27873 3.8749 5.90005V14C3.8749 14.6214 4.37858 15.125 4.9999 15.125H13.0999C13.7212 15.125 14.2249 14.6214 14.2249 14V10.85C14.2249 10.4773 14.5271 10.175 14.8999 10.175C15.2727 10.175 15.5749 10.4773 15.5749 10.85V14C15.5749 15.367 14.4668 16.475 13.0999 16.475H4.9999C3.633 16.475 2.5249 15.367 2.5249 14V5.90005C2.5249 4.53314 3.633 3.42505 4.9999 3.42505H8.1499C8.52269 3.42505 8.8249 3.72726 8.8249 4.10005C8.8249 4.47284 8.52269 4.77505 8.1499 4.77505H4.9999Z" fill="#9FA6B2"/>
</g>
<path d="M28.4751 11.587C31.163 11.5919 32.855 12.4378 32.8646 13.9026C32.855 15.3432 31.163 16.2037 28.4751 16.1989C25.8115 16.2037 24.105 15.3432 24.105 13.9026C24.105 12.4378 25.8115 11.5919 28.4751 11.587ZM22.9351 10.6878V9.45511H27.2811V7.21685H28.7845V9.45511H34.1506V10.6878H22.9351ZM24.221 5.64572V4.44199H32.7873V5.46685C32.7873 6.4482 32.7873 7.48757 32.4392 8.75898L30.9406 8.60912C31.2452 7.41022 31.2645 6.54489 31.2693 5.64572H24.221ZM25.6229 13.9026C25.6133 14.6326 26.6913 15.029 28.4751 15.029C30.2686 15.029 31.3467 14.6326 31.3515 13.9026C31.3467 13.1533 30.2686 12.7327 28.4751 12.7279C26.6913 12.7327 25.6133 13.1533 25.6229 13.9026ZM46.2937 10.7845V12.0173H43.5381V16.2086H42.0009V12.0173H39.255V16.2086H37.6984V12.0173H34.996V10.7845H46.2937ZM36.1804 7.06215C36.1756 5.37983 37.9836 4.3018 40.6134 4.3018C43.2481 4.3018 45.0658 5.37983 45.0658 7.06215C45.0658 8.71547 43.2481 9.7645 40.6134 9.75967C37.9836 9.7645 36.1756 8.71547 36.1804 7.06215ZM37.7467 7.06215C37.737 8.00483 38.8683 8.55594 40.6134 8.55594C42.3683 8.55594 43.4946 8.00483 43.4995 7.06215C43.4946 6.09047 42.3683 5.52486 40.6134 5.52486C38.8683 5.52486 37.737 6.09047 37.7467 7.06215Z" fill="#9FA6B2"/>
<path fill-rule="evenodd" clip-rule="evenodd" d="M71.8785 2.4083C72.3194 1.96742 73.0331 1.96742 73.474 2.4083L76.1716 5.10595C76.6125 5.54683 76.6125 6.2605 76.1716 6.70139L67.1757 15.6973C67.0931 15.7799 66.9859 15.8335 66.8703 15.85L62.7526 16.4382C62.5843 16.4623 62.4146 16.4057 62.2944 16.2855C62.1742 16.1653 62.1176 15.9956 62.1417 15.8273L62.7299 11.7097C62.7464 11.594 62.8 11.4868 62.8826 11.4042L71.8785 2.4083ZM72.7103 3.17197C72.6912 3.15286 72.6613 3.15286 72.6422 3.17197L63.7736 12.0406L63.3126 15.2673L66.5393 14.8063L75.4079 5.93771C75.427 5.91859 75.427 5.88874 75.4079 5.86962L72.7103 3.17197Z" fill="#9FA6B2"/>
<path fill-rule="evenodd" clip-rule="evenodd" d="M74.8229 3.75704C75.0338 3.96792 75.0338 4.30983 74.8229 4.52071L67.7641 11.5795C67.5532 11.7904 67.2113 11.7904 67.0004 11.5795C66.7896 11.3687 66.7896 11.0267 67.0004 10.8159L74.0593 3.75704C74.2702 3.54616 74.6121 3.54616 74.8229 3.75704Z" fill="#9FA6B2"/>
<path fill-rule="evenodd" clip-rule="evenodd" d="M62.8828 11.4043C63.0937 11.1934 63.4356 11.1934 63.6464 11.4043L67.1759 14.9337C67.3867 15.1446 67.3867 15.4865 67.1759 15.6973C66.965 15.9082 66.6231 15.9082 66.4122 15.6973L62.8828 12.1679C62.6719 11.957 62.6719 11.6151 62.8828 11.4043Z" fill="#9FA6B2"/>
<path d="M92.1934 3.86188V16.2376H90.6609V3.86188H92.1934ZM82.3073 9.12155C82.3025 6.45304 83.6609 4.76105 85.5366 4.75621C87.3881 4.76105 88.7514 6.45304 88.7514 9.12155C88.7514 11.8094 87.3881 13.5014 85.5366 13.4965C83.6609 13.5014 82.3025 11.8094 82.3073 9.12155ZM83.7721 9.12155C83.7721 11.0214 84.4827 12.1236 85.5366 12.1236C86.5711 12.1236 87.2818 11.0214 87.2818 9.12155C87.2818 7.23619 86.5711 6.12914 85.5366 6.12914C84.4827 6.12914 83.7721 7.23619 83.7721 9.12155ZM105.294 10.1416V11.3501H93.996V10.1416H105.294ZM95.398 5.30249V4.11809H103.897V7.28453H96.9352V8.17403H104.138V9.33909H95.427V6.18232H102.379V5.30249H95.398ZM95.4753 16.0635V12.2348H103.93V16.0635H95.4753ZM96.9643 14.8356H102.427V13.4434H96.9643V14.8356ZM119.783 3.87155V12.989H118.265V9.88052H115.78V10.9876H109.988V4.6837H111.516V6.67541H114.276V4.6837H115.78V6.00345H118.265V3.87155H119.783ZM111.516 9.77901H114.276V7.8453H111.516V9.77901ZM111.637 15.9765V12.0898H113.174V14.7438H120.053V15.9765H111.637ZM115.78 8.65262H118.265V7.23619H115.78V8.65262ZM131.882 3.87155V11.0891H130.364V9.72583H127.42V8.49793H130.364V7.15884H127.541C126.763 9.12638 124.955 10.5041 122.262 11.2535L121.658 10.0546C124.544 9.26657 126.086 7.8018 126.328 5.96478H122.31V4.72721H127.981C127.981 5.15746 127.947 5.56354 127.879 5.95511H130.364V3.87155H131.882ZM123.601 13.6802C123.596 12.1671 125.259 11.2293 127.792 11.2293C130.297 11.2293 131.959 12.1671 131.964 13.6802C131.959 15.203 130.297 16.1554 127.792 16.1506C125.259 16.1554 123.596 15.203 123.601 13.6802ZM125.119 13.6802C125.114 14.4972 126.129 14.942 127.792 14.942C129.426 14.942 130.437 14.4972 130.446 13.6802C130.437 12.8633 129.426 12.4137 127.792 12.4233C126.129 12.4137 125.114 12.8633 125.119 13.6802Z" fill="#9FA6B2"/>
<path d="M149.1 5.1H159.9V15.5C159.9 16.2732 159.273 16.9 158.5 16.9H150.5C149.727 16.9 149.1 16.2732 149.1 15.5V5.1Z" stroke="#9FA6B2" stroke-width="1.2"/>
<path d="M151.984 3.07385C152.221 2.59955 152.706 2.29995 153.236 2.29995H155.764C156.294 2.29995 156.779 2.59955 157.016 3.07385L158.029 5.09995H150.971L151.984 3.07385Z" stroke="#9FA6B2" stroke-width="1.2"/>
<rect x="147" y="4.5" width="15" height="1.2" rx="0.6" fill="#9FA6B2"/>
<rect x="155.1" y="7.5" width="7" height="1.2" rx="0.6" transform="rotate(90 155.1 7.5)" fill="#9FA6B2"/>
<rect x="157.7" y="7.5" width="7" height="1.2" rx="0.6" transform="rotate(90 157.7 7.5)" fill="#9FA6B2"/>
<rect x="152.7" y="7.5" width="7" height="1.2" rx="0.6" transform="rotate(90 152.7 7.5)" fill="#9FA6B2"/>
<path d="M172.334 5.81008C172.325 7.35704 173.33 8.83149 175.249 9.45511L174.485 10.6395C173.098 10.1899 172.117 9.26174 171.585 8.09185C171.044 9.35843 170.038 10.3446 168.593 10.828L167.814 9.61948C169.811 8.97652 170.807 7.38605 170.811 5.68439V4.49517H172.334V5.81008ZM169.424 13.0953V11.8771H177.662V16.2086H176.134V13.0953H169.424ZM176.134 11.3356V3.86188H177.662V6.96064H179.387V8.23688H177.662V11.3356H176.134ZM190.641 3.86188V16.2086H189.2V3.86188H190.641ZM179.793 12.7086C181.577 11.616 182.36 9.38743 182.36 7.23619V6.41436H180.214V5.18646H185.821V6.41436H183.825V7.23619C183.82 9.31975 184.569 11.413 186.339 12.4282L185.444 13.5449C184.299 12.8681 183.535 11.6934 183.109 10.2866C182.674 11.8094 181.886 13.1098 180.721 13.8301L179.793 12.7086ZM184.922 9.3971V8.1692H186.701V4.09392H188.127V15.614H186.701V9.3971H184.922Z" fill="#9FA6B2"/>
<defs>
<clipPath id="clip0_6220_28503">
<rect width="18" height="18" fill="white" transform="translate(0.5 0.5)"/>
</clipPath>
</defs>
</svg>
