<svg width="128" height="54" viewBox="0 0 128 54" fill="none" xmlns="http://www.w3.org/2000/svg">
<rect width="128" height="54" rx="8" fill="url(#paint0_linear_7294_14922)"/>
<path d="M55.5539 32.1043V33.7203H41.0283V32.1043H47.2873V29.5124H42.75V24.3163H51.8992V22.3398H42.7251V20.761H53.8322V25.8639H44.7017V27.9151H54.1989V29.5124H49.2265V32.1043H55.5539ZM69.221 21.2148V23.0173C69.221 25.1367 69.221 27.3308 68.643 30.6685L66.6602 30.5007C67.2756 27.3805 67.2756 25.0746 67.2818 23.0173V22.7997H58.114V21.2148H69.221ZM56.585 33.3909V31.7811H71.0608V33.3909H56.585ZM85.3681 19.692V31.172H83.4102V19.692H85.3681ZM72.4275 24.7017C72.4213 22.3895 74.2921 20.7362 76.71 20.7362C79.1278 20.7362 80.9862 22.3895 80.9862 24.7017C80.9862 27.0511 79.1278 28.692 76.71 28.6858C74.2921 28.692 72.4213 27.0511 72.4275 24.7017ZM74.3357 24.7017C74.3294 26.1126 75.3488 26.9827 76.71 26.9827C78.0339 26.9827 79.0656 26.1126 79.0656 24.7017C79.0656 23.328 78.0339 22.4392 76.71 22.4392C75.3488 22.4392 74.3294 23.328 74.3357 24.7017ZM74.8578 35.2555V30.0035H76.8281V33.6706H85.8156V35.2555H74.8578Z" fill="#F5F5F5"/>
<defs>
<linearGradient id="paint0_linear_7294_14922" x1="0.160004" y1="-5.60327e-05" x2="132.387" y2="5.40793" gradientUnits="userSpaceOnUse">
<stop stop-color="#6D6AFE"/>
<stop offset="1" stop-color="#6AE3FE"/>
</linearGradient>
</defs>
</svg>
