<svg width="15" height="17" viewBox="0 0 15 17" fill="none" xmlns="http://www.w3.org/2000/svg">
<g id="Group 36">
<path id="Rectangle 194" d="M2.1 4.1H12.9V14.5C12.9 15.2732 12.2732 15.9 11.5 15.9H3.5C2.7268 15.9 2.1 15.2732 2.1 14.5V4.1Z" stroke="#9FA6B2" stroke-width="1.2"/>
<path id="Rectangle 195" d="M4.98387 2.07385C5.22102 1.59955 5.70579 1.29995 6.23607 1.29995H8.76393C9.29421 1.29995 9.77898 1.59955 10.0161 2.07385L11.0292 4.09995H3.97082L4.98387 2.07385Z" stroke="#9FA6B2" stroke-width="1.2"/>
<rect id="Rectangle 195_2" y="3.5" width="15" height="1.2" rx="0.6" fill="#9FA6B2"/>
<rect id="Rectangle 196" x="8.1001" y="6.5" width="7" height="1.2" rx="0.6" transform="rotate(90 8.1001 6.5)" fill="#9FA6B2"/>
<rect id="Rectangle 198" x="10.6997" y="6.5" width="7" height="1.2" rx="0.6" transform="rotate(90 10.6997 6.5)" fill="#9FA6B2"/>
<rect id="Rectangle 197" x="5.7002" y="6.5" width="7" height="1.2" rx="0.6" transform="rotate(90 5.7002 6.5)" fill="#9FA6B2"/>
</g>
</svg>
