<svg xmlns="http://www.w3.org/2000/svg" width="42" height="42" fill="none"><circle cx="21" cy="21" r="21" fill="#F5E14B"/><g fill="#331D1E" clip-path="url(#a)"><path d="M17.501 21.19H19l-.749-2.129-.749 2.129Z"/><path d="M21 10c-7.18 0-13 4.59-13 10.253 0 3.661 2.434 6.877 6.094 8.688-.199.686-1.28 4.419-1.323 4.713 0 0-.026.22.116.303a.393.393 0 0 0 .31.02c.41-.058 4.75-3.103 5.5-3.627.763.106 1.533.158 2.303.156 7.18 0 13-4.59 13-10.253S28.18 10 21 10Zm-6.434 8.662c-.016 1.45.013 2.975-.011 4.403-.008.457-.27.593-.625.723a.235.235 0 0 1-.125.009c-.406-.08-.73-.225-.74-.73-.029-1.427.009-2.955-.011-4.405-.344-.014-.834.013-1.153 0-.442-.03-.75-.31-.731-.73.019-.418.242-.72.739-.727a136.57 136.57 0 0 1 3.797 0c.5.007.723.31.738.728.015.417-.288.7-.729.729-.315.013-.804-.014-1.149 0Zm6.3 5.057c-.15.069-.313.104-.477.104-.313 0-.552-.125-.625-.331l-.375-.973h-2.283l-.375.973c-.072.203-.311.331-.625.331-.164 0-.327-.035-.476-.104-.208-.095-.406-.357-.179-1.065l1.799-4.724a1.125 1.125 0 0 1 1-.74 1.134 1.134 0 0 1 1 .741l1.793 4.722c.228.709.03.976-.177 1.066Zm3.79 0H22.25a.705.705 0 0 1-.719-.687V17.94a.767.767 0 0 1 1.532 0v4.408h1.593a.688.688 0 1 1 0 1.375v-.004Zm5.875-.565a.75.75 0 0 1-1.345.35l-1.759-2.33-.26.26v1.638a.75.75 0 1 1-1.5 0v-5.127a.75.75 0 1 1 1.5 0v1.608l2.093-2.093a.578.578 0 0 1 .416-.168.76.76 0 0 1 .738.698.586.586 0 0 1-.164.456l-1.712 1.71 1.846 2.447a.75.75 0 0 1 .143.555l.004-.004Z"/></g><defs><clipPath id="a"><path fill="#fff" d="M8 10h26v24H8z"/></clipPath></defs></svg>