<svg width="30" height="31" viewBox="0 0 30 31" fill="none" xmlns="http://www.w3.org/2000/svg">
<path d="M14.4563 1.16431C14.6718 0.702779 15.3281 0.702778 15.5437 1.16431L19.5666 9.78007C19.6514 9.9616 19.8212 10.0889 20.0192 10.1193L29.0676 11.509C29.5493 11.583 29.7465 12.1701 29.407 12.5199L22.8185 19.308C22.6863 19.4441 22.6264 19.6347 22.6567 19.822L24.2063 29.3712C24.2866 29.866 23.7608 30.2352 23.3226 29.9918L15.2914 25.529C15.1102 25.4283 14.8898 25.4283 14.7086 25.529L6.67738 29.9918C6.23924 30.2352 5.71341 29.866 5.7937 29.3712L7.34325 19.822C7.37364 19.6347 7.31367 19.4441 7.18154 19.308L0.592983 12.5199C0.253496 12.1701 0.450661 11.583 0.932443 11.509L9.9808 10.1193C10.1788 10.0889 10.3486 9.9616 10.4334 9.78007L14.4563 1.16431Z" fill="black" fill-opacity="0.2"/>
</svg>
