<svg xmlns="http://www.w3.org/2000/svg" width="16" height="17" viewBox="0 0 16 17" fill="none">
  <path fill-rule="evenodd" clip-rule="evenodd" d="M8.52151 2.46601C8.52151 2.17145 8.28272 1.93267 7.98817 1.93267C7.69362 1.93267 7.45484 2.17145 7.45484 2.46601L7.45484 7.96665L1.95425 7.96665C1.6597 7.96665 1.42092 8.20543 1.42092 8.49999C1.42092 8.79454 1.6597 9.03332 1.95425 9.03332L7.45484 9.03332L7.45484 14.5339C7.45484 14.8285 7.69362 15.0673 7.98817 15.0673C8.28273 15.0673 8.52151 14.8285 8.52151 14.534L8.52151 9.03332L14.0222 9.03333C14.3168 9.03333 14.5555 8.79454 14.5555 8.49999C14.5555 8.20544 14.3167 7.96666 14.0222 7.96666L8.52151 7.96665L8.52151 2.46601Z" fill="#6D6AFE"/>
</svg>