<svg width="18" height="19" viewBox="0 0 18 19" fill="none" xmlns="http://www.w3.org/2000/svg">
<g id="share" clip-path="url(#clip0_1203_513)">
<path id="Vector 52 (Stroke)" fill-rule="evenodd" clip-rule="evenodd" d="M7.39498 11.045C7.13138 10.7813 7.13138 10.354 7.39498 10.0904L13.8295 3.52012H10.3679C9.99513 3.52012 9.69292 3.21792 9.69292 2.84512C9.69292 2.47233 9.99513 2.17012 10.3679 2.17012H15.4591C15.8319 2.17012 16.1341 2.47233 16.1341 2.84512L16.1341 7.93629C16.1341 8.30909 15.8319 8.61129 15.4591 8.61129C15.0863 8.61129 14.7841 8.30908 14.7841 7.93629L14.7841 4.47472L8.34958 11.045C8.08597 11.3086 7.65859 11.3086 7.39498 11.045Z" fill="#9FA6B2"/>
<path id="Rectangle 192 (Stroke)" fill-rule="evenodd" clip-rule="evenodd" d="M4.50002 4.775C3.8787 4.775 3.37502 5.27868 3.37502 5.9V14C3.37502 14.6213 3.8787 15.125 4.50002 15.125H12.6C13.2213 15.125 13.725 14.6213 13.725 14V10.85C13.725 10.4772 14.0272 10.175 14.4 10.175C14.7728 10.175 15.075 10.4772 15.075 10.85V14C15.075 15.3669 13.9669 16.475 12.6 16.475H4.50002C3.13312 16.475 2.02502 15.3669 2.02502 14V5.9C2.02502 4.53309 3.13312 3.425 4.50002 3.425H7.65002C8.02282 3.425 8.32502 3.72721 8.32502 4.1C8.32502 4.47279 8.02282 4.775 7.65002 4.775H4.50002Z" fill="#9FA6B2"/>
</g>
<defs>
<clipPath id="clip0_1203_513">
<rect width="18" height="18" fill="white" transform="translate(0 0.5)"/>
</clipPath>
</defs>
</svg>
