<svg width="15" height="16" viewBox="0 0 15 16" fill="none" xmlns="http://www.w3.org/2000/svg">
<g id="Group 36">
<path id="Rectangle 194" d="M2.1 3.6H12.9V14C12.9 14.7732 12.2732 15.4 11.5 15.4H3.5C2.7268 15.4 2.1 14.7732 2.1 14V3.6Z" stroke="#9FA6B2" stroke-width="1.2"/>
<path id="Rectangle 195" d="M4.98387 1.57385C5.22102 1.09955 5.70579 0.799951 6.23607 0.799951H8.76393C9.29421 0.799951 9.77898 1.09955 10.0161 1.57385L11.0292 3.59995H3.97082L4.98387 1.57385Z" stroke="#9FA6B2" stroke-width="1.2"/>
<rect id="Rectangle 195_2" y="3" width="15" height="1.2" rx="0.6" fill="#9FA6B2"/>
<rect id="Rectangle 196" x="8.1001" y="6" width="7" height="1.2" rx="0.6" transform="rotate(90 8.1001 6)" fill="#9FA6B2"/>
<rect id="Rectangle 198" x="10.6997" y="6" width="7" height="1.2" rx="0.6" transform="rotate(90 10.6997 6)" fill="#9FA6B2"/>
<rect id="Rectangle 197" x="5.7002" y="6" width="7" height="1.2" rx="0.6" transform="rotate(90 5.7002 6)" fill="#9FA6B2"/>
</g>
</svg>
