<svg width="16" height="17" viewBox="0 0 16 17" fill="none" xmlns="http://www.w3.org/2000/svg">
<g id="link">
<path id="Vector (Stroke)" fill-rule="evenodd" clip-rule="evenodd" d="M8.5169 2.33379C9.27131 1.60515 10.2817 1.20198 11.3305 1.21109C12.3793 1.2202 13.3825 1.64088 14.1242 2.38251C14.8658 3.12414 15.2865 4.12739 15.2956 5.17618C15.3047 6.22497 14.9015 7.23538 14.1729 7.98979L14.1648 7.99805L12.1649 9.99797C11.7594 10.4036 11.2713 10.7173 10.7339 10.9178C10.1965 11.1183 9.6223 11.2008 9.05018 11.1598C8.47807 11.1189 7.92146 10.9553 7.4181 10.6803C6.91475 10.4053 6.47643 10.0253 6.13286 9.56597C5.91233 9.27113 5.97255 8.85334 6.26739 8.6328C6.56222 8.41226 6.98001 8.47249 7.20055 8.76733C7.42959 9.07353 7.72181 9.32689 8.05738 9.51023C8.39295 9.69357 8.76402 9.80259 9.14543 9.82991C9.52684 9.85722 9.90966 9.80219 10.2679 9.66854C10.6262 9.5349 10.9515 9.32576 11.2219 9.05533L11.222 9.05524L13.2176 7.05956C13.701 6.55705 13.9684 5.88513 13.9623 5.18777C13.9562 4.48858 13.6758 3.81974 13.1814 3.32532C12.6869 2.8309 12.0181 2.55045 11.3189 2.54437C10.6212 2.53831 9.94905 2.80591 9.44647 3.28967L8.3034 4.42609C8.04229 4.68568 7.62019 4.68445 7.3606 4.42334C7.10101 4.16223 7.10224 3.74012 7.36335 3.48053L8.51001 2.34053L8.5169 2.33379Z" fill="#6D6AFE"/>
<path id="Vector (Stroke)_2" fill-rule="evenodd" clip-rule="evenodd" d="M5.26591 6.08197C5.80331 5.8815 6.37755 5.79896 6.94966 5.83993C7.52178 5.88091 8.07839 6.04444 8.58174 6.31945C9.0851 6.59445 9.52342 6.9745 9.86698 7.4338C10.0875 7.72863 10.0273 8.14642 9.73246 8.36696C9.43763 8.5875 9.01984 8.52727 8.7993 8.23244C8.57026 7.92623 8.27804 7.67287 7.94247 7.48954C7.6069 7.3062 7.23583 7.19717 6.85442 7.16986C6.47301 7.14254 6.09019 7.19757 5.73191 7.33122C5.37364 7.46487 5.0483 7.674 4.77796 7.94444L2.7822 9.9402C2.29884 10.4427 2.03148 11.1146 2.03754 11.812C2.04361 12.5112 2.32406 13.18 2.81848 13.6744C3.31291 14.1689 3.98174 14.4493 4.68093 14.4554C5.37829 14.4615 6.0502 14.1941 6.55272 13.7107L7.6884 12.575C7.94875 12.3147 8.37086 12.3147 8.63121 12.575C8.89156 12.8354 8.89156 13.2575 8.63121 13.5179L7.49121 14.6579L7.48295 14.666C6.72854 15.3946 5.71813 15.7978 4.66934 15.7887C3.62056 15.7796 2.61731 15.3589 1.87567 14.6173C1.13404 13.8756 0.713366 12.8724 0.704253 11.8236C0.695139 10.7748 1.09832 9.76439 1.82695 9.00998L1.83507 9.00171L3.83498 7.0018C3.83496 7.00183 3.83501 7.00177 3.83498 7.0018C4.24048 6.59618 4.72854 6.28243 5.26591 6.08197Z" fill="#6D6AFE"/>
</g>
</svg>
