<svg width="350" height="54" viewBox="0 0 350 54" fill="none" xmlns="http://www.w3.org/2000/svg">
<rect width="350" height="54" rx="8" fill="url(#paint0_linear_7_2008)"/>
<path d="M139.755 19.692V29.3819H137.797V19.692H139.755ZM127.336 22.2403V20.6492H134.664V25.3046H129.282V27.0076C131.998 26.9952 133.95 26.9081 136.218 26.5539L136.467 28.1326C133.956 28.5366 131.799 28.6112 128.722 28.6112H127.367V23.8315H132.731V22.2403H127.336ZM128.983 32.6015C128.983 30.7244 131.035 29.6616 134.416 29.6616C137.791 29.6616 139.854 30.7244 139.854 32.6015C139.854 34.4599 137.791 35.5477 134.416 35.5414C131.035 35.5477 128.983 34.4599 128.983 32.6015ZM130.923 32.6015C130.923 33.5276 132.172 34.0124 134.416 34.0062C136.653 34.0124 137.896 33.5276 137.903 32.6015C137.896 31.6816 136.653 31.1906 134.416 31.1906C132.172 31.1906 130.923 31.6816 130.923 32.6015ZM154.97 21.1464V23.0421C154.963 25.3543 154.963 27.5421 154.261 30.9109L152.309 30.7369C152.633 29.3508 152.813 28.1264 152.919 27.0076L143.558 27.4738L143.303 25.895L153.012 25.5345C153.049 24.6768 153.049 23.8564 153.055 23.0421V22.7314H143.769V21.1464H154.97ZM142.085 33.5401V31.9365H156.561V33.5401H142.085ZM176.389 29.2141V30.8177H170.105V35.5787H168.166V30.8177H161.913V29.2141H176.389ZM162.702 26.703C165.872 26.3177 167.955 24.6954 168.153 23.1105H163.256V21.5566H168.166V19.6858H170.105V21.5566H175.04V23.1105H170.136C170.329 24.6768 172.399 26.3177 175.562 26.703L174.854 28.2445C172.225 27.9151 170.186 26.759 169.148 25.23C168.116 26.7776 166.059 27.9151 163.411 28.2445L162.702 26.703ZM189.913 19.6796V25.8826H192.269V27.5048H189.913V35.529H187.955V19.6796H189.913ZM177.389 31.1906C181.255 29.2514 183.343 26.5539 183.729 22.9365H178.234V21.3267H185.718C185.705 25.9945 183.772 30.0967 178.489 32.6948L177.389 31.1906ZM205.47 19.6796V26.0069H207.919V27.6167H205.47V35.5539H203.537V19.6796H205.47ZM192.939 23.6885V22.1098H196.693V19.9033H198.645V22.1098H202.312V23.6885H192.939ZM193.673 28.4558C193.66 26.2617 195.363 24.7141 197.682 24.7141C199.969 24.7141 201.666 26.2617 201.678 28.4558C201.666 30.6499 199.969 32.1913 197.682 32.1913C195.363 32.1913 193.66 30.6499 193.673 28.4558ZM195.544 28.4558C195.531 29.761 196.439 30.5877 197.682 30.5753C198.906 30.5877 199.795 29.761 199.807 28.4558C199.795 27.1692 198.906 26.3177 197.682 26.3177C196.439 26.3177 195.531 27.1692 195.544 28.4558ZM221.847 19.6796V35.5539H219.877V19.6796H221.847ZM208.689 31.1844C212.847 29.2079 214.774 26.529 215.122 22.9116H209.497V21.364H217.111C217.104 26.0939 215.271 30.1091 209.714 32.7507L208.689 31.1844Z" fill="#F5F5F5"/>
<defs>
<linearGradient id="paint0_linear_7_2008" x1="0.437511" y1="-5.60327e-05" x2="358.128" y2="40.0017" gradientUnits="userSpaceOnUse">
<stop stop-color="#6D6AFE"/>
<stop offset="1" stop-color="#6AE3FE"/>
</linearGradient>
</defs>
</svg>
