<svg width="258" height="102" viewBox="0 0 258 102" fill="none" xmlns="http://www.w3.org/2000/svg">
<path d="M37.4088 0.69613V32.9337H31.4088V29.5193H23.2541V25.442H31.4088V0.69613H37.4088ZM1.09392 19.6077C8.9337 19.5414 19.4751 19.442 28.4917 18.2983L28.8398 22.5912C25.4751 23.1547 21.9779 23.5359 18.5304 23.8011V31.9061H12.5304V37.7569H38.3536V42.5801H6.54696V29.8343H12.5304V24.1492C8.70166 24.2983 5.05525 24.3315 1.80663 24.3315L1.09392 19.6077ZM4.25967 9.79558C4.25967 5.25414 8.65193 2.12155 14.9834 2.13812C21.1989 2.12155 25.6243 5.25414 25.6409 9.79558C25.6243 14.3702 21.1989 17.3204 14.9834 17.3204C8.65193 17.3204 4.25967 14.3702 4.25967 9.79558ZM9.92818 9.79558C9.9116 11.8674 11.9503 12.9945 14.9834 12.9945C17.8674 12.9945 19.9392 11.8674 19.9558 9.79558C19.9392 7.67403 17.8674 6.51381 14.9834 6.51381C11.9503 6.51381 9.9116 7.67403 9.92818 9.79558ZM76.107 0.629834V17.3536H82.4054V22.2762H76.107V43.326H70.1899V0.629834H76.107ZM42.2286 11.8011V7.01105H51.8916V1.30939H57.8584V7.01105H67.3059V11.8011H42.2286ZM43.9523 24.3646C43.9358 18.4144 48.5766 14.1878 54.875 14.1878C61.0905 14.1878 65.7479 18.4144 65.7645 24.3646C65.7479 30.3315 61.0905 34.5249 54.875 34.5414C48.5766 34.5249 43.9358 30.3315 43.9523 24.3646ZM49.6871 24.3646C49.6706 27.6796 51.8584 29.6519 54.875 29.6354C57.8584 29.6519 60.0131 27.6796 60.0463 24.3646C60.0131 21.0994 57.8584 19.0773 54.875 19.0442C51.8584 19.0773 49.6706 21.0994 49.6871 24.3646ZM118.286 12.2983V16.9889H88.4848V2.15469H94.4351V12.2983H118.286ZM83.5953 26.2376V21.547H122.612V26.2376H83.5953ZM88.087 42.3812V29.7348H94.0704V37.5746H118.551V42.3812H88.087ZM171.294 0.69613V26.6022H165.294V0.69613H171.294ZM137.78 8.0221V3.19889H157.553V16.1105H143.713V19.9558C150.824 19.9227 155.846 19.674 161.581 18.8122L162.327 23.5856C155.796 24.6464 150.045 24.8287 141.575 24.8287H137.829V11.6519H151.636V8.0221H137.78ZM142.139 35.3204C142.139 30.1989 147.708 27.2983 156.84 27.2983C165.957 27.2983 171.559 30.1989 171.559 35.3204C171.559 40.3591 165.957 43.326 156.84 43.3094C147.708 43.326 142.139 40.3591 142.139 35.3204ZM148.106 35.3204C148.089 37.558 151.106 38.6685 156.84 38.6519C162.542 38.6685 165.559 37.558 165.575 35.3204C165.559 33.0663 162.542 31.9392 156.84 31.9392C151.106 31.9392 148.089 33.0663 148.106 35.3204ZM211.982 4.39226V9.39779C211.966 15.5801 211.966 21.4972 210.01 30.7293L204.06 30.1989C204.905 26.6519 205.402 23.5193 205.684 20.6354L180.955 21.8287L180.225 17.0552L205.999 16.1436C206.098 13.8066 206.115 11.6022 206.115 9.39779V9.19889H181.518V4.39226H211.982ZM177.076 38.1878V33.3149H215.993V38.1878H177.076Z" fill="url(#paint0_linear_7_2022)"/>
<path d="M257.227 19.7735V24.2155H218.211V19.7735H257.227ZM222.669 30.4807V26.337H252.57V36.4144H228.653V38.8508H253.813V42.9282H222.703V32.6188H246.636V30.4807H222.669ZM223.001 5.48619V1.42541H252.52V11.4365H229.018V13.7238H253.25V17.768H223.067V7.64088H246.52V5.48619H223.001ZM37.326 58.6298V101.425H31.3094V78.3867H23.6685V73.5304H31.3094V58.6298H37.326ZM0.596685 88.6796C7.75691 85.3646 11.2376 77.2431 11.2707 69.3536V67.5801H2.40332V62.7569H26.2541V67.5801H17.3867V69.3536C17.3702 76.8453 20.8343 84.6851 28.0276 87.7845L24.5138 92.5249C19.558 90.2044 16.2099 85.7293 14.3702 80.2928C12.5304 86.0939 9.1326 90.9337 4.16022 93.4033L0.596685 88.6796ZM66.7092 61.5138V66.2873H58.1899C58.2231 71.2597 61.2396 76.0663 68.0352 78.0884L65.201 82.7624C60.4606 81.337 57.1954 78.4696 55.3059 74.8232C53.4164 79.0994 49.9523 82.5138 44.8474 84.1878L41.8142 79.4641C48.875 77.2265 52.0905 71.7072 52.1568 66.2873H43.4385V61.5138H66.7092ZM47.6982 93.0221C47.6816 87.8177 53.2838 84.7845 62.3004 84.8011C71.201 84.7845 76.7037 87.8177 76.7037 93.0221C76.7037 98.2265 71.201 101.326 62.3004 101.309C53.2838 101.326 47.6816 98.2265 47.6982 93.0221ZM53.6816 93.0221C53.665 95.4586 56.7148 96.6685 62.3004 96.6519C67.8529 96.6685 70.8032 95.4586 70.8032 93.0221C70.8032 90.6188 67.8529 89.442 62.3004 89.4586C56.7148 89.442 53.665 90.6188 53.6816 93.0221ZM70.3059 83.9724V58.6298H76.3059V68.558H82.0407V73.4309H76.3059V83.9724H70.3059ZM117.291 58.6298V75.3536H123.59V80.2762H117.291V101.326H111.374V58.6298H117.291ZM83.413 69.8011V65.011H93.0759V59.3094H99.0428V65.011H108.49V69.8011H83.413ZM85.1367 82.3646C85.1201 76.4144 89.761 72.1878 96.0594 72.1878C102.275 72.1878 106.932 76.4144 106.949 82.3646C106.932 88.3315 102.275 92.5249 96.0594 92.5414C89.761 92.5249 85.1201 88.3315 85.1367 82.3646ZM90.8715 82.3646C90.8549 85.6796 93.0428 87.6519 96.0594 87.6354C99.0428 87.6519 101.197 85.6796 101.231 82.3646C101.197 79.0994 99.0428 77.0773 96.0594 77.0442C93.0428 77.0773 90.8549 79.0994 90.8715 82.3646ZM138.487 69.3867C138.487 76.2983 140.409 83.4254 146.26 87.1713L142.995 91.779C139.316 89.558 136.979 85.895 135.619 81.5359C134.111 86.3591 131.542 90.4033 127.68 92.7569L124.034 88.3149C130.349 84.4033 132.686 76.895 132.686 69.6685V62.3094H138.487V69.3867ZM141.752 77.9227V73.0497H147.271V59.2928H152.874V99.3536H147.271V77.9227H141.752ZM156.072 101.326V58.6298H161.791V101.326H156.072ZM205.03 91.4475V96.3204H166.014V91.4475H174.715V80.9724C171.417 78.9834 169.428 75.9503 169.445 72.1878C169.428 65.2928 176.191 60.7348 185.439 60.7348C194.688 60.7348 201.517 65.2928 201.517 72.1878C201.517 75.9006 199.577 78.884 196.362 80.8729V91.4475H205.03ZM175.329 72.1878C175.329 76.3812 179.34 78.9503 185.439 78.9669C191.489 78.9503 195.599 76.3812 195.616 72.1878C195.599 67.9116 191.489 65.4254 185.439 65.4586C179.34 65.4254 175.329 67.9116 175.329 72.1878ZM180.633 91.4475H190.312V83.1436C188.787 83.4254 187.163 83.5912 185.439 83.5912C183.749 83.5912 182.141 83.442 180.633 83.1436V91.4475Z" fill="black"/>
<defs>
<linearGradient id="paint0_linear_7_2022" x1="0" y1="-8" x2="203.453" y2="36.7476" gradientUnits="userSpaceOnUse">
<stop offset="0.0229106" stop-color="#FE8A8A"/>
<stop offset="1" stop-color="#A4CEFF"/>
</linearGradient>
</defs>
</svg>
