<svg width="258" height="101" viewBox="0 0 258 101" fill="none" xmlns="http://www.w3.org/2000/svg">
<path d="M37.3125 0.65625H31.3125V15.5156H23.6719V20.3906H31.3125V43.4062H37.3125V0.65625ZM0.609375 30.6562L4.17188 35.3906C9.14062 32.9297 12.5391 28.1016 14.3906 22.2891C16.2188 27.7266 19.5469 32.2031 24.5156 34.5L28.0312 29.7656C20.8359 26.6719 17.3672 18.8438 17.3906 11.3438V9.5625H26.25V4.78125H2.39062V9.5625H11.25V11.3438C11.25 19.2422 7.75781 27.375 0.609375 30.6562ZM66.6844 3.51562H43.4344V8.29688H52.1531C52.0828 13.7109 48.8719 19.2422 41.7938 21.4688L44.8406 26.2031C49.95 24.5156 53.4188 21.0938 55.3172 16.8047C57.1922 20.4375 60.4734 23.3203 65.1844 24.75L68.0438 20.0625C61.2469 18.0703 58.2234 13.2656 58.2 8.29688H66.6844V3.51562ZM47.7 35.0156C47.6766 40.2422 53.3016 43.3359 62.325 43.3125C71.2078 43.3359 76.6922 40.2422 76.7156 35.0156C76.6922 29.8125 71.2078 26.7891 62.325 26.8125C53.3016 26.7891 47.6766 29.8125 47.7 35.0156ZM53.7 35.0156C53.6531 32.625 56.7234 31.4297 62.325 31.4531C67.8563 31.4297 70.8094 32.625 70.8094 35.0156C70.8094 37.4531 67.8563 38.6719 62.325 38.6719C56.7234 38.6719 53.6531 37.4531 53.7 35.0156ZM70.2938 25.9688H76.2938V15.4219H82.0594V10.5469H76.2938V0.65625H70.2938V25.9688ZM117.478 0.703125H111.478V32.5312H117.478V18.6562H123.244V13.7812H117.478V0.703125ZM83.6344 9.89062H108.947V5.15625H99.2906V0.609375H93.3375V5.15625H83.6344V9.89062ZM85.6969 19.6406C85.6969 24.5625 90.0797 27.7969 96.2906 27.7969C102.478 27.7969 106.791 24.5625 106.791 19.6406C106.791 14.6953 102.478 11.3906 96.2906 11.3906C90.0797 11.3906 85.6969 14.6953 85.6969 19.6406ZM89.8219 42.5625H119.025V37.7812H95.775V30.0938H89.8219V42.5625ZM91.5563 19.6406C91.5328 17.2734 93.4313 15.9609 96.2906 15.9375C99.1734 15.9609 101.119 17.2734 101.119 19.6406C101.119 21.9844 99.1734 23.25 96.2906 23.25C93.4313 23.25 91.5328 21.9844 91.5563 19.6406ZM171.3 0.703125H165.3V26.625H171.3V0.703125ZM137.784 8.01562H151.613V11.6719H137.831V24.8438H141.581C150.042 24.8438 155.808 24.6562 162.347 23.5781L161.597 18.7969C155.855 19.6641 150.816 19.9219 143.691 19.9688V16.125H157.566V3.1875H137.784V8.01562ZM142.144 35.2969C142.144 40.3594 147.698 43.3359 156.816 43.3125C165.956 43.3359 171.558 40.3594 171.581 35.2969C171.558 30.1875 165.956 27.3047 156.816 27.3281C147.698 27.3047 142.144 30.1875 142.144 35.2969ZM148.097 35.2969C148.097 33.0703 151.097 31.9453 156.816 31.9688C162.558 31.9453 165.558 33.0703 165.581 35.2969C165.558 37.5703 162.558 38.6719 156.816 38.6719C151.097 38.6719 148.097 37.5703 148.097 35.2969ZM211.688 4.40625H181.219V9.1875H205.828V9.375C205.828 11.5781 205.805 13.7812 205.711 16.125L179.906 17.0625L180.656 21.8438L205.406 20.625C205.102 23.5078 204.609 26.6484 203.766 30.1875L209.719 30.75C211.664 21.4922 211.664 15.5859 211.688 9.375V4.40625ZM176.766 38.2031H215.672V33.3281H176.766V38.2031ZM256.95 19.7812H217.903V24.2344H256.95V19.7812ZM222.356 30.4688H246.356V32.625H222.403V42.9375H253.528V38.8594H228.356V36.4219H252.262V26.3438H222.356V30.4688ZM222.684 5.48438H246.216V7.64062H222.778V17.7656H252.966V13.7344H228.731V11.4375H252.216V1.40625H222.684V5.48438ZM104.812 64.1719H97.5V58.8281H91.5938V64.1719H84.1875V68.9062H104.812V64.1719ZM85.1719 80.9531C85.1719 86.9062 89.1562 91.125 94.5938 91.125C100.055 91.125 103.945 86.9062 103.969 80.9531C103.945 75.0234 100.055 70.8516 94.5938 70.8281C89.1562 70.8516 85.1719 75.0234 85.1719 80.9531ZM90.4219 80.9531C90.4219 77.7422 92.1094 75.7969 94.5938 75.7969C96.9844 75.7969 98.6953 77.7422 98.7188 80.9531C98.6953 84.2109 96.9844 86.0625 94.5938 86.0625C92.1094 86.0625 90.4219 84.2109 90.4219 80.9531ZM106.406 98.4844H111.984V79.7812H115.453V100.312H121.125V57.6562H115.453V75H111.984V58.5H106.406V98.4844ZM175.228 90.4688H158.587V82.5938H170.869V60.375H164.916V66.9844H146.306V60.375H140.306V82.5938H152.634V90.4688H136.181V95.3438H175.228V90.4688ZM146.306 77.8125V71.7656H164.916V77.8125H146.306ZM191.053 68.3906V61.3125H185.241V68.6719C185.241 75.8906 182.897 83.4141 176.569 87.3281L180.225 91.7344C184.092 89.3906 186.647 85.3359 188.17 80.5078C189.53 84.8672 191.85 88.5703 195.553 90.7969L198.788 86.1562C192.952 82.4297 191.03 75.3047 191.053 68.3906ZM194.288 76.9219H199.819V98.3438H205.397V58.2656H199.819V72.0469H194.288V76.9219ZM208.631 100.312H214.35V57.6562H208.631V100.312ZM257.597 90.4219H248.925V79.8516C252.136 77.8594 254.058 74.8828 254.081 71.2031C254.058 64.2891 247.238 59.7422 238.003 59.7188C228.722 59.7422 221.972 64.2891 221.972 71.2031C221.972 74.9531 223.964 77.9766 227.269 79.9688V90.4219H218.55V95.3438H257.597V90.4219ZM227.878 71.2031C227.878 66.9141 231.886 64.4297 238.003 64.4531C244.027 64.4297 248.152 66.9141 248.175 71.2031C248.152 75.375 244.027 77.9531 238.003 77.9531C231.886 77.9531 227.878 75.375 227.878 71.2031ZM233.175 90.4219V82.1484C234.675 82.4297 236.292 82.5938 238.003 82.5938C239.714 82.5938 241.355 82.4297 242.878 82.125V90.4219H233.175Z" fill="black"/>
<path d="M23.3906 60.1406H3.79688V64.9219H16.9922C16.0078 70.6641 10.7109 75.3516 1.5 77.8594L3.84375 82.5C16.3359 79.0312 23.3906 71.2969 23.3906 60.1406ZM8.95312 99.7969H37.2188V83.25H8.95312V99.7969ZM14.8125 95.1094V87.9375H31.3125V95.1094H14.8125ZM23.6719 72.7031H31.2656V81.5625H37.2188V57.7031H31.2656V67.8281H23.6719V72.7031ZM56.3906 65.0625V60.1406H50.5781V65.0625C50.5781 69.8906 48.1641 75.1875 42.1406 77.7656L45.3281 82.4062C49.2891 80.7422 51.9844 77.6719 53.5312 74.0156C55.0547 77.2266 57.5625 79.8281 61.1719 81.2812L64.4062 76.6875C58.7344 74.4375 56.3906 69.8203 56.3906 65.0625ZM49.9219 90.1875H73.4531V100.312H79.4062V85.4062H49.9219V90.1875ZM64.5938 83.2969H70.1719V72.9375H73.7344V83.5312H79.4062V57.7031H73.7344V68.0625H70.1719V58.3594H64.5938V83.2969Z" fill="url(#paint0_linear_7_2069)"/>
<defs>
<linearGradient id="paint0_linear_7_2069" x1="285.183" y1="105.246" x2="-24.2059" y2="88.5002" gradientUnits="userSpaceOnUse">
<stop stop-color="#FE578F"/>
<stop offset="1" stop-color="#68E8F9"/>
</linearGradient>
</defs>
</svg>
