<svg width="257" height="101" viewBox="0 0 257 101" fill="none" xmlns="http://www.w3.org/2000/svg">
<path d="M36.9844 0.703125H30.9844V26.625H36.9844V0.703125ZM3.46875 8.01562H17.2969V11.6719H3.51562V24.8438H7.26562C15.7266 24.8438 21.4922 24.6562 28.0312 23.5781L27.2812 18.7969C21.5391 19.6641 16.5 19.9219 9.375 19.9688V16.125H23.25V3.1875H3.46875V8.01562ZM7.82812 35.2969C7.82812 40.3594 13.3828 43.3359 22.5 43.3125C31.6406 43.3359 37.2422 40.3594 37.2656 35.2969C37.2422 30.1875 31.6406 27.3047 22.5 27.3281C13.3828 27.3047 7.82812 30.1875 7.82812 35.2969ZM13.7812 35.2969C13.7812 33.0703 16.7812 31.9453 22.5 31.9688C28.2422 31.9453 31.2422 33.0703 31.2656 35.2969C31.2422 37.5703 28.2422 38.6719 22.5 38.6719C16.7812 38.6719 13.7812 37.5703 13.7812 35.2969ZM77.3719 4.40625H46.9031V9.1875H71.5125V9.375C71.5125 11.5781 71.4891 13.7812 71.3953 16.125L45.5906 17.0625L46.3406 21.8438L71.0906 20.625C70.7859 23.5078 70.2938 26.6484 69.45 30.1875L75.4031 30.75C77.3484 21.4922 77.3484 15.5859 77.3719 9.375V4.40625ZM42.45 38.2031H81.3563V33.3281H42.45V38.2031ZM122.634 19.7812H83.5875V24.2344H122.634V19.7812ZM88.0406 30.4688H112.041V32.625H88.0875V42.9375H119.213V38.8594H94.0406V36.4219H117.947V26.3438H88.0406V30.4688ZM88.3688 5.48438H111.9V7.64062H88.4625V17.7656H118.65V13.7344H94.4156V11.4375H117.9V1.40625H88.3688V5.48438ZM171.019 1.6875H139.003V6.09375H144.534V11.7188H139.284V16.1719H151.988V18.8438H135.581V23.4844H174.488V18.8438H157.988V16.1719H170.738V11.7188H165.441V6.09375H171.019V1.6875ZM140.081 30H163.847V32.1562H140.128V43.0312H170.878V38.625H145.988V36.1875H169.753V25.7344H140.081V30ZM150.534 11.7188V6.09375H159.441V11.7188H150.534ZM198.234 4.40625H178.781V33.0938H182.25C190.125 33.1406 195.281 32.9062 201.141 31.7812L200.531 26.9531C195.516 27.8672 191.039 28.1484 184.828 28.2188V9.28125H198.234V4.40625ZM196.125 20.2969H206.859V43.4062H212.812V0.65625H206.859V15.4219H196.125V20.2969ZM256.997 33.6562H240.356V27.2344H253.481V22.3594H228.45V17.5781H252.497V3.42188H222.403V8.20312H246.591V12.8906H222.45V27.2344H234.403V33.6562H217.95V38.5781H256.997V33.6562ZM117.291 57.6562H111.384V100.312H117.291V79.2656H123.572V74.3438H117.291V57.6562ZM83.4 68.8125H108.478V64.0312H99.0563V58.3125H93.0563V64.0312H83.4V68.8125ZM85.1344 81.375C85.1109 87.3281 89.7516 91.5234 96.0563 91.5469C102.267 91.5234 106.931 87.3281 106.931 81.375C106.931 75.4219 102.267 71.1797 96.0563 71.2031C89.7516 71.1797 85.1109 75.4219 85.1344 81.375ZM90.8531 81.375C90.8531 78.0938 93.0328 76.0781 96.0563 76.0312C99.0328 76.0781 101.213 78.0938 101.213 81.375C101.213 84.6797 99.0328 86.6484 96.0563 86.625C93.0328 86.6484 90.8531 84.6797 90.8531 81.375ZM138.506 68.3906V61.3125H132.694V68.6719C132.694 75.8906 130.35 83.4141 124.022 87.3281L127.678 91.7344C131.545 89.3906 134.1 85.3359 135.623 80.5078C136.983 84.8672 139.303 88.5703 143.006 90.7969L146.241 86.1562C140.405 82.4297 138.483 75.3047 138.506 68.3906ZM141.741 76.9219H147.272V98.3438H152.85V58.2656H147.272V72.0469H141.741V76.9219ZM156.084 100.312H161.803V57.6562H156.084V100.312ZM205.05 90.4219H196.378V79.8516C199.589 77.8594 201.511 74.8828 201.534 71.2031C201.511 64.2891 194.691 59.7422 185.456 59.7188C176.175 59.7422 169.425 64.2891 169.425 71.2031C169.425 74.9531 171.417 77.9766 174.722 79.9688V90.4219H166.003V95.3438H205.05V90.4219ZM175.331 71.2031C175.331 66.9141 179.339 64.4297 185.456 64.4531C191.48 64.4297 195.605 66.9141 195.628 71.2031C195.605 75.375 191.48 77.9531 185.456 77.9531C179.339 77.9531 175.331 75.375 175.331 71.2031ZM180.628 90.4219V82.1484C182.128 82.4297 183.745 82.5938 185.456 82.5938C187.167 82.5938 188.808 82.4297 190.331 82.125V90.4219H180.628Z" fill="black"/>
<path d="M25.1719 60.75H3.23438V65.625H19.3359C19.2891 68.1797 19.1016 71.2969 18.3281 75.375L24.1875 75.9375C25.1719 70.6406 25.1719 66.375 25.1719 63.4219V60.75ZM0.703125 79.0312L1.21875 83.8125C8.64844 83.7891 18.6328 83.625 27.5156 81.9844L27.1875 77.6719C23.1797 78.2578 18.8438 78.5859 14.5781 78.7734V70.5938H8.625V78.9609C5.78906 79.0312 3.09375 79.0312 0.703125 79.0312ZM6.98438 99.5625H36.9375V94.7812H12.9844V86.7188H6.98438V99.5625ZM29.4844 89.5781H35.625V75.6562H40.7812V70.6406H35.625V57.6562H29.4844V89.5781ZM78.2156 57.6562H72.2625V100.406H78.2156V57.6562ZM44.7 66.0469H58.9031V72.9375H44.7469V90.4219H48.5906C56.3719 90.4219 62.7234 90.1641 69.7313 88.9219L69.2156 84.0938C62.9578 85.125 57.45 85.4531 50.9344 85.5V77.6719H64.9969V61.2188H44.7V66.0469Z" fill="url(#paint0_linear_7_2048)"/>
<defs>
<linearGradient id="paint0_linear_7_2048" x1="92.5" y1="86.5" x2="-0.431818" y2="60.5462" gradientUnits="userSpaceOnUse">
<stop stop-color="#6FBAFF"/>
<stop offset="1" stop-color="#FFD88B"/>
</linearGradient>
</defs>
</svg>
