<svg width="706" height="138" viewBox="0 0 706 138" fill="none" xmlns="http://www.w3.org/2000/svg">
<path d="M136.938 15.1875V5.75H129.188V15.5625C129.188 25.1875 126.062 35.2188 117.625 40.4375L122.5 46.3125C127.656 43.1875 131.062 37.7812 133.094 31.3438C134.906 37.1562 138 42.0938 142.938 45.0625L147.25 38.875C139.469 33.9062 136.906 24.4062 136.938 15.1875ZM141.25 26.5625H148.625V55.125H156.062V1.6875H148.625V20.0625H141.25V26.5625ZM160.375 57.75H168V0.875H160.375V57.75ZM194.75 9.8125V3.875H186.75V9.0625C186.688 16.9062 182.625 24.4688 173.125 27.625L177.438 33.875C183.938 31.6875 188.344 27.1875 190.812 21.4688C193.25 26.4375 197.469 30.3125 203.5 32.3125L207.75 26.125C198.75 23.3438 194.719 16.7188 194.75 9.8125ZM181 46.75C180.969 53.7188 188.5 57.7812 200.5 57.75C212.281 57.7812 219.656 53.7188 219.688 46.75C219.656 39.8438 212.281 35.75 200.5 35.75C188.5 35.75 180.969 39.8438 181 46.75ZM189 46.75C188.938 43.6562 193.031 42 200.5 42C207.875 42 211.812 43.6562 211.812 46.75C211.812 49.9688 207.875 51.5 200.5 51.5C193.031 51.5 188.938 49.9688 189 46.75ZM211.125 34.625H219.125V20.8125H226.812V14.1875H219.125V0.875H211.125V34.625ZM247.75 4.6875C238.781 4.65625 231.906 10.4688 231.938 18.625C231.906 26.8125 238.781 32.5938 247.75 32.625C256.781 32.5938 263.469 26.8125 263.5 18.625C263.469 10.4688 256.781 4.65625 247.75 4.6875ZM229.562 39.75L230.5 46.25C240.438 46.25 253.938 46.1562 266.562 43.6875L265.938 37.9375C253.781 39.6562 239.719 39.7812 229.562 39.75ZM239.875 18.625C239.844 14.1875 243.25 11.5625 247.75 11.5625C252.281 11.5625 255.719 14.1875 255.75 18.625C255.719 23.125 252.281 25.7188 247.75 25.6875C243.25 25.7188 239.844 23.125 239.875 18.625ZM269.188 57.875H277.125V0.875H269.188V57.875ZM351.438 44.5625H329.25V32.9375H345.625V5.0625H304.875V32.9375H321.312V44.5625H299.375V51.125H351.438V44.5625ZM312.75 26.6875V11.4375H337.75V26.6875H312.75ZM406.688 28.9375H354.688V35.3125H406.688V28.9375ZM360.938 56.6875H401.312V50.3125H368.812V39.75H360.938V56.6875ZM361 24.3125H401V17.9375H368.938V9.3125H400.438V2.9375H361V24.3125ZM472.688 0.875H464.75V14.75H455.875V21.1875H464.75V34.625H472.688V0.875ZM424.375 28.375L428.5 34.6875C435.25 32.375 439.812 27.7188 442.312 21.9375C444.781 27.0312 449.125 31.1562 455.375 33.1875L459.312 26.9375C450.469 24 446.406 17.3125 446.25 10.6875H457.562V4.3125H426.688V10.6875H438.125C437.938 17.8125 433.688 25.25 424.375 28.375ZM433.688 46.875C433.688 53.7812 441.125 57.8125 453.25 57.8125C465.406 57.8125 472.844 53.7812 472.875 46.875C472.844 39.9688 465.406 35.9062 453.25 35.875C441.125 35.9062 433.688 39.9688 433.688 46.875ZM441.625 46.875C441.625 43.5938 445.719 41.9688 453.25 42C460.812 41.9688 464.906 43.5938 464.938 46.875C464.906 50.125 460.812 51.75 453.25 51.75C445.719 51.75 441.625 50.125 441.625 46.875ZM532.125 44.625H509.938V34.125H526.312V4.5H518.375V13.3125H493.562V4.5H485.562V34.125H502V44.625H480.062V51.125H532.125V44.625ZM493.562 27.75V19.6875H518.375V27.75H493.562Z" fill="url(#paint0_linear_7_2007)"/>
<path d="M587.375 26.375H535.312V32.3125H587.375V26.375ZM541.25 40.625H573.25V43.5H541.312V57.25H582.812V51.8125H549.25V48.5625H581.125V35.125H541.25V40.625ZM541.688 7.3125H573.062V10.1875H541.812V23.6875H582.062V18.3125H549.75V15.25H581.062V1.875H541.688V7.3125ZM17.1875 130.812V126.812H40.5625V130.812H17.1875ZM0.75 104.812L1.6875 111.188C6.1875 111.188 11.2188 111.156 16.5 110.969V116H9.3125V137.125H48.4375V116H40.5625V120.812H17.1875V117.188H24.4375V110.531C28.875 110.188 33.375 109.688 37.75 108.938L37.375 103.312C25.2188 104.844 11.375 104.844 0.75 104.812ZM2.75 96.5L6.25 102.562C13.0312 101.125 17.625 97.75 20.0938 93.2812C22.625 97.3438 27.1562 100.375 33.6875 101.688L37.0625 95.6875C28.25 94 24.0938 89.4375 24.125 84.625V82.3125H15.9375V84.625C15.875 89.8125 11.7812 94.6562 2.75 96.5ZM40.5 113.688H48.4375V80.9375H40.5V113.688ZM105.312 80.875H97.8125V137.75H105.312V80.875ZM55.3125 120.312L59.8125 125.938C67.9062 121.25 73.1875 115.625 76.4375 109.125H85.75V135.25H93.1875V82.125H85.75V102.812H78.9062C80.2812 98.125 80.875 93.0625 80.875 87.625H58.4375V94.0625H72.9688C71.875 105.219 66.8125 113.5 55.3125 120.312ZM174.125 80.875H166.125V100.688H155.938V107.188H166.125V137.875H174.125V80.875ZM125.188 120.875L129.938 127.188C136.562 123.906 141.094 117.469 143.562 109.719C146 116.969 150.438 122.938 157.062 126L161.75 119.688C152.156 115.562 147.531 105.125 147.562 95.125V92.75H159.375V86.375H127.562V92.75H139.375V95.125C139.375 105.656 134.719 116.5 125.188 120.875ZM213.688 84.6875H182.688V91.0625H194.312C194.219 98.2812 189.938 105.656 180.5 108.625L184.562 114.938C191.375 112.688 196 108.125 198.531 102.406C201.031 107.25 205.406 111.094 211.688 113L215.5 106.75C206.438 104.094 202.406 97.6875 202.375 91.0625H213.688V84.6875ZM188.375 126.688C188.344 133.656 195.844 137.781 207.875 137.75C219.719 137.781 227.031 133.656 227.062 126.688C227.031 119.75 219.719 115.719 207.875 115.75C195.844 115.719 188.344 119.75 188.375 126.688ZM196.375 126.688C196.312 123.5 200.406 121.906 207.875 121.938C215.25 121.906 219.188 123.5 219.188 126.688C219.188 129.938 215.25 131.562 207.875 131.562C200.406 131.562 196.312 129.938 196.375 126.688ZM218.5 114.625H226.5V100.562H234.188V94.0625H226.5V80.875H218.5V114.625ZM281.562 80.875H273.688V137.75H281.562V109.688H289.938V103.125H281.562V80.875ZM236.375 95.75H269.812V89.375H257.25V81.75H249.25V89.375H236.375V95.75ZM238.688 112.5C238.656 120.438 244.844 126.031 253.25 126.062C261.531 126.031 267.75 120.438 267.75 112.5C267.75 104.562 261.531 98.9062 253.25 98.9375C244.844 98.9062 238.656 104.562 238.688 112.5ZM246.312 112.5C246.312 108.125 249.219 105.438 253.25 105.375C257.219 105.438 260.125 108.125 260.125 112.5C260.125 116.906 257.219 119.531 253.25 119.5C249.219 119.531 246.312 116.906 246.312 112.5ZM338.875 85.8125H297.375V92.125H330.875C330.844 98.8125 330.75 106.812 328.562 117.562L336.562 118.375C338.844 106.312 338.844 98.3125 338.875 91.1875V85.8125ZM292 130.812H343.875V124.312H318.5V104.75H310.562V124.312H292V130.812ZM393.938 85H364.688V91.5H386.156C386.094 94.9062 385.844 99.0625 384.812 104.5L392.625 105.25C393.938 98.1875 393.938 92.5 393.938 88.5625V85ZM361.312 109.375L362 115.75C371.906 115.719 385.219 115.5 397.062 113.312L396.625 107.562C391.281 108.344 385.5 108.781 379.812 109.031V98.125H371.875V109.281C368.094 109.375 364.5 109.375 361.312 109.375ZM369.688 136.75H409.625V130.375H377.688V119.625H369.688V136.75ZM399.688 123.438H407.875V104.875H414.75V98.1875H407.875V80.875H399.688V123.438ZM465.062 80.875H457.125V137.875H465.062V80.875ZM420.375 92.0625H439.312V101.25H420.438V124.562H425.562C435.938 124.562 444.406 124.219 453.75 122.562L453.062 116.125C444.719 117.5 437.375 117.938 428.688 118V107.562H447.438V85.625H420.375V92.0625ZM500.125 89.5625H490.375V82.4375H482.5V89.5625H472.625V95.875H500.125V89.5625ZM473.938 111.938C473.938 119.875 479.25 125.5 486.5 125.5C493.781 125.5 498.969 119.875 499 111.938C498.969 104.031 493.781 98.4688 486.5 98.4375C479.25 98.4688 473.938 104.031 473.938 111.938ZM480.938 111.938C480.938 107.656 483.188 105.062 486.5 105.062C489.688 105.062 491.969 107.656 492 111.938C491.969 116.281 489.688 118.75 486.5 118.75C483.188 118.75 480.938 116.281 480.938 111.938ZM502.25 135.312H509.688V110.375H514.312V137.75H521.875V80.875H514.312V104H509.688V82H502.25V135.312ZM594.812 124.625H572.625V114.125H589V84.5H581.062V93.3125H556.25V84.5H548.25V114.125H564.688V124.625H542.75V131.125H594.812V124.625ZM556.25 107.75V99.6875H581.062V107.75H556.25ZM616.312 95.1875V85.75H608.562V95.5625C608.562 105.188 605.438 115.219 597 120.438L601.875 126.312C607.031 123.188 610.438 117.781 612.469 111.344C614.281 117.156 617.375 122.094 622.312 125.062L626.625 118.875C618.844 113.906 616.281 104.406 616.312 95.1875ZM620.625 106.562H628V135.125H635.438V81.6875H628V100.062H620.625V106.562ZM639.75 137.75H647.375V80.875H639.75V137.75ZM705.438 124.562H693.875V110.469C698.156 107.812 700.719 103.844 700.75 98.9375C700.719 89.7188 691.625 83.6562 679.312 83.625C666.938 83.6562 657.938 89.7188 657.938 98.9375C657.938 103.938 660.594 107.969 665 110.625V124.562H653.375V131.125H705.438V124.562ZM665.812 98.9375C665.812 93.2188 671.156 89.9062 679.312 89.9375C687.344 89.9062 692.844 93.2188 692.875 98.9375C692.844 104.5 687.344 107.938 679.312 107.938C671.156 107.938 665.812 104.5 665.812 98.9375ZM672.875 124.562V113.531C674.875 113.906 677.031 114.125 679.312 114.125C681.594 114.125 683.781 113.906 685.812 113.5V124.562H672.875Z" fill="black"/>
<defs>
<linearGradient id="paint0_linear_7_2007" x1="122.872" y1="0.940263" x2="536.472" y2="41.2707" gradientUnits="userSpaceOnUse">
<stop stop-color="#6D6AFE"/>
<stop offset="1" stop-color="#FF9F9F"/>
</linearGradient>
</defs>
</svg>
