<svg width="20" height="20" viewBox="0 0 20 20" fill="none" xmlns="http://www.w3.org/2000/svg">
<rect width="20" height="20" fill="#1E1E1E"/>
<rect id="Rectangle 199" x="-2526" y="-3680" width="3478" height="4210" stroke="#FED87C" stroke-width="50"/>
<g id="landing/pc" clip-path="url(#clip0_0_1)">
<rect width="1920" height="3597" transform="translate(-1700 -3469)" fill="white"/>
<g id="Contents">
<g id="Footer" filter="url(#filter0_d_0_1)">
<g id="Frame 2608782">
<rect width="1920" height="160" transform="translate(-1700 -32)" fill="#111322"/>
<g id="Frame 2608745">
<g id="Frame 2608749">
<g id="akar-icons:facebook-fill">
<g id="Group">
<g id="Group_2">
<path id="Vector" fill-rule="evenodd" clip-rule="evenodd" d="M1 9.90279C1 14.3773 4.24975 18.098 8.5 18.8525V12.3523H6.25V9.85254H8.5V7.85229C8.5 5.60229 9.94975 4.35279 12.0002 4.35279C12.6497 4.35279 13.3503 4.45254 13.9998 4.55229V6.85254H12.85C11.7498 6.85254 11.5 7.40229 11.5 8.10279V9.85254H13.9L13.5002 12.3523H11.5V18.8525C15.7502 18.098 19 14.378 19 9.90279C19 4.92504 14.95 0.852539 10 0.852539C5.05 0.852539 1 4.92504 1 9.90279Z" fill="white"/>
</g>
</g>
</g>
</g>
</g>
</g>
</g>
</g>
</g>
<defs>
<filter id="filter0_d_0_1" x="-1716" y="-168" width="1952" height="312" filterUnits="userSpaceOnUse" color-interpolation-filters="sRGB">
<feFlood flood-opacity="0" result="BackgroundImageFix"/>
<feColorMatrix in="SourceAlpha" type="matrix" values="0 0 0 0 0 0 0 0 0 0 0 0 0 0 0 0 0 0 127 0" result="hardAlpha"/>
<feOffset/>
<feGaussianBlur stdDeviation="8"/>
<feComposite in2="hardAlpha" operator="out"/>
<feColorMatrix type="matrix" values="0 0 0 0 0 0 0 0 0 0 0 0 0 0 0 0 0 0 0.02 0"/>
<feBlend mode="normal" in2="BackgroundImageFix" result="effect1_dropShadow_0_1"/>
<feBlend mode="normal" in="SourceGraphic" in2="effect1_dropShadow_0_1" result="shape"/>
</filter>
<clipPath id="clip0_0_1">
<rect width="1920" height="3597" fill="white" transform="translate(-1700 -3469)"/>
</clipPath>
</defs>
</svg>
