<svg xmlns="http://www.w3.org/2000/svg" width="19" height="19" viewBox="0 0 19 19" fill="none">
  <g clip-path="url(#clip0_10854_5741)">
    <path fill-rule="evenodd" clip-rule="evenodd" d="M7.8951 11.045C7.6315 10.7813 7.6315 10.354 7.8951 10.0904L14.3296 3.52012H10.868C10.4953 3.52012 10.193 3.21792 10.193 2.84512C10.193 2.47233 10.4952 2.17012 10.868 2.17012H15.9592C16.332 2.17012 16.6342 2.47233 16.6342 2.84512L16.6342 7.93629C16.6342 8.30909 16.332 8.61129 15.9592 8.61129C15.5864 8.61129 15.2842 8.30908 15.2842 7.93629L15.2842 4.47472L8.8497 11.045C8.5861 11.3086 8.15871 11.3086 7.8951 11.045Z" fill="#9FA6B2"/>
    <path fill-rule="evenodd" clip-rule="evenodd" d="M4.9999 4.7748C4.37858 4.7748 3.8749 5.27848 3.8749 5.8998V13.9998C3.8749 14.6211 4.37858 15.1248 4.9999 15.1248H13.0999C13.7212 15.1248 14.2249 14.6211 14.2249 13.9998V10.8498C14.2249 10.477 14.5271 10.1748 14.8999 10.1748C15.2727 10.1748 15.5749 10.477 15.5749 10.8498V13.9998C15.5749 15.3667 14.4668 16.4748 13.0999 16.4748H4.9999C3.633 16.4748 2.5249 15.3667 2.5249 13.9998V5.8998C2.5249 4.5329 3.633 3.4248 4.9999 3.4248H8.1499C8.52269 3.4248 8.8249 3.72701 8.8249 4.0998C8.8249 4.4726 8.52269 4.7748 8.1499 4.7748H4.9999Z" fill="#9FA6B2"/>
  </g>
  <defs>
    <clipPath id="clip0_10854_5741">
      <rect width="18" height="18" fill="white" transform="translate(0.5 0.5)"/>
    </clipPath>
  </defs>
</svg>