<svg width="19" height="18" viewBox="0 0 19 18" fill="none" xmlns="http://www.w3.org/2000/svg">
<g clip-path="url(#clip0_10605_2452)">
<path fill-rule="evenodd" clip-rule="evenodd" d="M7.8951 10.545C7.6315 10.2813 7.6315 9.85396 7.8951 9.59036L14.3296 3.02012H10.868C10.4953 3.02012 10.193 2.71792 10.193 2.34512C10.193 1.97233 10.4952 1.67012 10.868 1.67012H15.9592C16.332 1.67012 16.6342 1.97233 16.6342 2.34512L16.6342 7.43629C16.6342 7.80909 16.332 8.11129 15.9592 8.11129C15.5864 8.11129 15.2842 7.80908 15.2842 7.43629L15.2842 3.97472L8.8497 10.545C8.5861 10.8086 8.15871 10.8086 7.8951 10.545Z" fill="#9FA6B2"/>
<path fill-rule="evenodd" clip-rule="evenodd" d="M4.9999 4.27505C4.37858 4.27505 3.8749 4.77873 3.8749 5.40005V13.5C3.8749 14.1214 4.37858 14.625 4.9999 14.625H13.0999C13.7212 14.625 14.2249 14.1214 14.2249 13.5V10.35C14.2249 9.97726 14.5271 9.67505 14.8999 9.67505C15.2727 9.67505 15.5749 9.97726 15.5749 10.35V13.5C15.5749 14.867 14.4668 15.975 13.0999 15.975H4.9999C3.633 15.975 2.5249 14.867 2.5249 13.5V5.40005C2.5249 4.03314 3.633 2.92505 4.9999 2.92505H8.1499C8.52269 2.92505 8.8249 3.22726 8.8249 3.60005C8.8249 3.97284 8.52269 4.27505 8.1499 4.27505H4.9999Z" fill="#9FA6B2"/>
</g>
<defs>
<clipPath id="clip0_10605_2452">
<rect width="18" height="18" fill="white" transform="translate(0.5)"/>
</clipPath>
</defs>
</svg>
