<svg width="42" height="42" viewBox="0 0 42 42" fill="none" xmlns="http://www.w3.org/2000/svg">
<rect width="42" height="42" rx="21" fill="#9D9D9D" fill-opacity="0.04"/>
<g clip-path="url(#clip0_11755_1329)">
<path fill-rule="evenodd" clip-rule="evenodd" d="M21.5815 14.063C22.4302 13.2433 23.5669 12.7897 24.7468 12.8C25.9266 12.8102 27.0553 13.2835 27.8896 14.1178C28.724 14.9522 29.1972 16.0808 29.2075 17.2607C29.2177 18.4406 28.7642 19.5773 27.9445 20.426L27.9353 20.4353L25.6854 22.6852C25.2292 23.1416 24.6802 23.4945 24.0756 23.72C23.471 23.9455 22.825 24.0384 22.1814 23.9923C21.5378 23.9462 20.9116 23.7622 20.3453 23.4529C19.779 23.1435 19.2859 22.7159 18.8994 22.1992C18.6513 21.8675 18.7191 21.3975 19.0507 21.1494C19.3824 20.9013 19.8525 20.9691 20.1006 21.3007C20.3582 21.6452 20.687 21.9303 21.0645 22.1365C21.442 22.3428 21.8595 22.4654 22.2885 22.4961C22.7176 22.5269 23.1483 22.465 23.5514 22.3146C23.9544 22.1643 24.3204 21.929 24.6246 21.6247L24.6247 21.6246L26.8698 19.3795C27.4136 18.8142 27.7144 18.0583 27.7075 17.2737C27.7007 16.4871 27.3852 15.7347 26.829 15.1785C26.2727 14.6223 25.5203 14.3068 24.7337 14.2999C23.9488 14.2931 23.1926 14.5942 22.6272 15.1384L21.3413 16.4168C21.0475 16.7089 20.5726 16.7075 20.2806 16.4138C19.9886 16.12 19.99 15.6451 20.2837 15.3531L21.5737 14.0706L21.5815 14.063Z" fill="#6D6AFE"/>
<path fill-rule="evenodd" clip-rule="evenodd" d="M17.9244 18.2799C18.529 18.0544 19.175 17.9615 19.8186 18.0076C20.4622 18.0537 21.0884 18.2377 21.6547 18.547C22.221 18.8564 22.7141 19.284 23.1006 19.8007C23.3487 20.1324 23.2809 20.6024 22.9493 20.8505C22.6176 21.0986 22.1476 21.0308 21.8995 20.6992C21.6418 20.3547 21.313 20.0696 20.9355 19.8634C20.558 19.6571 20.1405 19.5345 19.7115 19.5038C19.2824 19.473 18.8517 19.5349 18.4486 19.6853C18.0456 19.8356 17.6796 20.0709 17.3755 20.3752L15.1302 22.6204C14.5864 23.1857 14.2857 23.9416 14.2925 24.7262C14.2993 25.5128 14.6148 26.2652 15.171 26.8214C15.7273 27.3776 16.4797 27.6931 17.2663 27.7C18.0508 27.7068 18.8067 27.406 19.3721 26.8622L20.6497 25.5846C20.9426 25.2917 21.4175 25.2917 21.7104 25.5846C22.0033 25.8775 22.0033 26.3524 21.7104 26.6453L20.4279 27.9278L20.4186 27.9369C19.5699 28.7566 18.4331 29.2102 17.2533 29.1999C16.0734 29.1897 14.9447 28.7164 14.1104 27.8821C13.276 27.0477 12.8028 25.9191 12.7925 24.7392C12.7823 23.5593 13.2359 22.4226 14.0556 21.5739L14.0647 21.5646L16.3146 19.3147C16.3146 19.3147 16.3146 19.3147 16.3146 19.3147C16.7708 18.8584 17.3199 18.5054 17.9244 18.2799Z" fill="#6D6AFE"/>
</g>
<defs>
<clipPath id="clip0_11755_1329">
<rect width="18" height="18" fill="white" transform="translate(12 12)"/>
</clipPath>
</defs>
</svg>
