<svg width="60" height="60" viewBox="0 0 60 60" fill="none" xmlns="http://www.w3.org/2000/svg">
<rect width="60" height="60" rx="30" fill="#8F00FF"/>
<path fill-rule="evenodd" clip-rule="evenodd" d="M28.9147 37.1024C27.4069 36.8759 25.9953 36.2555 24.866 35.2751C24.8164 35.2313 24.7667 35.1847 24.7196 35.1406L24.7109 35.1324C24.6054 35.0362 24.5061 34.9369 24.4069 34.8345C24.3076 34.7322 24.2145 34.6267 24.1214 34.5212L24.074 34.4658C23.9992 34.3786 23.9237 34.2907 23.8546 34.1985C22.8029 32.849 22.2289 31.2016 22.2289 29.458C22.2289 27.6647 22.8339 25.9677 23.9446 24.5964C23.9555 24.5825 23.9663 24.5693 23.9772 24.5561C23.988 24.5429 23.9989 24.5297 24.0098 24.5157C24.1618 24.3327 24.32 24.1559 24.4906 23.9883C24.8381 23.6409 25.2135 23.3368 25.6106 23.0669C25.7254 22.9893 25.8402 22.9118 25.9581 22.8435C25.9814 22.8296 26.0054 22.8156 26.0294 22.8016C26.0535 22.7877 26.0775 22.7737 26.1008 22.7598C26.9633 22.2758 27.9188 21.95 28.9178 21.798C29.5849 21.6987 30.1712 21.345 30.5715 20.8021C30.9717 20.2592 31.1392 19.5921 31.0368 18.9251C30.9344 18.2581 30.5808 17.6686 30.0409 17.2684C29.5321 16.893 28.9178 16.7286 28.2942 16.7906V16.7875L28.2384 16.7968C28.226 16.7984 28.2136 16.7992 28.2012 16.7999C28.1888 16.8007 28.1764 16.8015 28.1639 16.803C27.9406 16.8372 27.7203 16.8775 27.5 16.9209C25.0212 17.3987 22.7377 18.5932 20.9166 20.4143C15.9403 25.3906 15.9309 33.485 20.8918 38.4706L20.9197 38.4985L20.9228 38.5016L20.9259 38.5047C22.9394 40.5151 25.5082 41.7654 28.2911 42.1253V42.1098C28.9147 42.1719 29.5321 42.0074 30.0378 41.632C30.5808 41.2318 30.9344 40.6423 31.0337 39.9753C31.133 39.3083 30.9686 38.6413 30.5684 38.0983C30.1681 37.5554 29.5818 37.2017 28.9147 37.1024ZM36.9687 24.5871C38.9977 24.5871 40.6483 22.9831 40.6483 21.0131C40.6483 18.9841 38.9977 17.3336 36.9687 17.3336C34.9987 17.3336 33.3947 18.9841 33.3947 21.0131C33.3947 22.9831 34.9987 24.5871 36.9687 24.5871ZM36.6585 32.1695C39.2118 32.1695 40.1519 33.5718 40.49 34.7477C41.2005 37.2172 39.7672 41.5048 36.8508 43.3291L36.2924 43.6797V39.3021C34.4775 39.1159 33.0814 37.5895 33.0814 35.7436C33.0814 33.7735 34.6884 32.1695 36.6585 32.1695Z" fill="white"/>
</svg>
