<svg width="18" height="18" viewBox="0 0 18 18" fill="none" xmlns="http://www.w3.org/2000/svg">
<g id="link" clip-path="url(#clip0_12105_1330)">
<path id="Vector (Stroke)" fill-rule="evenodd" clip-rule="evenodd" d="M9.58145 2.06301C10.4302 1.2433 11.5669 0.789722 12.7468 0.799975C13.9266 0.810228 15.0553 1.28349 15.8896 2.11782C16.724 2.95216 17.1972 4.08082 17.2075 5.2607C17.2177 6.44059 16.7642 7.5773 15.9445 8.42601L15.9353 8.43531L13.6854 10.6852C13.2292 11.1416 12.6802 11.4945 12.0756 11.72C11.471 11.9455 10.825 12.0384 10.1814 11.9923C9.53777 11.9462 8.91158 11.7622 8.34531 11.4529C7.77903 11.1435 7.28592 10.7159 6.89941 10.1992C6.65131 9.86752 6.71906 9.39751 7.05075 9.1494C7.38244 8.9013 7.85245 8.96905 8.10056 9.30074C8.35823 9.64522 8.68697 9.93025 9.06449 10.1365C9.442 10.3428 9.85946 10.4654 10.2885 10.4961C10.7176 10.5269 11.1483 10.465 11.5514 10.3146C11.9544 10.1643 12.3204 9.92898 12.6246 9.62474L12.6247 9.62465L14.8698 7.37951C15.4136 6.81418 15.7144 6.05828 15.7075 5.27374C15.7007 4.48715 15.3852 3.73471 14.829 3.17848C14.2727 2.62226 13.5203 2.30675 12.7337 2.29992C11.9488 2.2931 11.1926 2.59415 10.6272 3.13838L9.34127 4.41685C9.04752 4.70889 8.57265 4.7075 8.28061 4.41376C7.98857 4.12001 7.98996 3.64514 8.2837 3.3531L9.5737 2.0706L9.58145 2.06301Z" fill="#6D6AFE"/>
<path id="Vector (Stroke)_2" fill-rule="evenodd" clip-rule="evenodd" d="M5.92439 6.27989C6.52897 6.05436 7.17499 5.9615 7.81862 6.00759C8.46224 6.05369 9.08843 6.23766 9.65471 6.54705C10.221 6.85643 10.7141 7.28398 11.1006 7.80069C11.3487 8.13238 11.2809 8.60239 10.9493 8.8505C10.6176 9.0986 10.1476 9.03085 9.89945 8.69916C9.64178 8.35468 9.31304 8.06965 8.93552 7.86339C8.55801 7.65714 8.14055 7.53449 7.71146 7.50376C7.28238 7.47303 6.8517 7.53494 6.44865 7.68529C6.04559 7.83564 5.67959 8.07092 5.37545 8.37516L3.13022 10.6204C2.58644 11.1857 2.28565 11.9416 2.29247 12.7262C2.29931 13.5128 2.61481 14.2652 3.17104 14.8214C3.72726 15.3776 4.4797 15.6931 5.26629 15.7C6.05082 15.7068 6.80672 15.406 7.37205 14.8622L8.6497 13.5846C8.94259 13.2917 9.41746 13.2917 9.71036 13.5846C10.0033 13.8775 10.0033 14.3524 9.71036 14.6453L8.42786 15.9278L8.41856 15.9369C7.56985 16.7566 6.43314 17.2102 5.25326 17.1999C4.07337 17.1897 2.94471 16.7164 2.11038 15.8821C1.27604 15.0477 0.802781 13.9191 0.792529 12.7392C0.782276 11.5593 1.23585 10.4226 2.05556 9.57389L2.0647 9.5646L4.3146 7.31469C4.31457 7.31472 4.31463 7.31466 4.3146 7.31469C4.77078 6.85837 5.31985 6.5054 5.92439 6.27989Z" fill="#6D6AFE"/>
</g>
<defs>
<clipPath id="clip0_12105_1330">
<rect width="18" height="18" fill="white"/>
</clipPath>
</defs>
</svg>
