<svg clip-rule="evenodd" fill-rule="evenodd" stroke-linejoin="round" stroke-miterlimit="2" viewBox="0 0 24 24" xmlns="http://www.w3.org/2000/svg"><path d="m17.069 6.546 2.684-2.359c.143-.125.32-.187.497-.187.418 0 .75.34.75.75 0 .207-.086.414-.254.562l-16.5 14.501c-.142.126-.319.187-.496.187-.415 0-.75-.334-.75-.75 0-.207.086-.414.253-.562l2.438-2.143c-1.414-1.132-2.627-2.552-3.547-4.028-.096-.159-.144-.338-.144-.517s.049-.358.145-.517c2.111-3.39 5.775-6.483 9.853-6.483 1.815 0 3.536.593 5.071 1.546zm2.318 1.83c.967.943 1.804 2.013 2.475 3.117.092.156.138.332.138.507s-.046.351-.138.507c-2.068 3.403-5.721 6.493-9.864 6.493-1.298 0-2.553-.313-3.73-.849l2.624-2.307c.352.102.724.156 1.108.156 2.208 0 4-1.792 4-4 0-.206-.016-.408-.046-.606zm-4.932.467c-.678-.528-1.53-.843-2.455-.843-2.208 0-4 1.792-4 4 0 .741.202 1.435.553 2.03l1.16-1.019c-.137-.31-.213-.651-.213-1.011 0-1.38 1.12-2.5 2.5-2.5.474 0 .918.132 1.296.362z" fill-rule="nonzero"/></svg>