<svg width="134" height="24" viewBox="0 0 134 24" fill="none" xmlns="http://www.w3.org/2000/svg">
<g id="logo">
<g id="Linkbrary">
<path d="M5.70583 15.7049V0.792232H0.5V20.2718H15.4638V15.7049H5.70583Z" fill="#6D6AFE"/>
<path d="M22.1801 20.2718V5.12621H16.9743V20.2718H22.1801ZM22.1801 3.96117V0H16.9743V3.96117H22.1801Z" fill="#6D6AFE"/>
<path d="M33.6713 4.66019C31.617 4.66019 30.0062 5.42913 28.909 6.71068V5.12621H23.7032V20.2718H28.909V13.4913C28.9557 10.5786 30.2397 9.34369 32.3407 9.34369C34.1382 9.34369 34.8385 10.2524 34.8385 12.4194V20.2718H40.0444V11.5107C40.0444 6.92039 38.3169 4.66019 33.6713 4.66019Z" fill="#6D6AFE"/>
<path d="M46.5405 10.0893V0H41.3347V20.2718H46.5405V16.7068L48.7116 14.167L51.2328 20.2718H56.9755L53.684 12.233H50.369L56.5087 5.12621H50.8359L46.5405 10.0893Z" fill="#6D6AFE"/>
<path d="M67.5849 20.7379C70.7364 20.7379 74.6116 18.9437 74.6116 12.699C74.6116 6.45437 70.7364 4.66019 67.5849 4.66019C65.8341 4.66019 64.27 5.17281 63.0094 6.03495V0H57.8035V20.2718H63.0094V19.3631C64.27 20.2485 65.8341 20.7379 67.5849 20.7379ZM66.2076 16.1942C64.41 16.1942 63.0094 15.2854 63.0094 12.699V12.5126C63.0794 10.0893 64.4567 9.20388 66.2076 9.20388C68.2152 9.20388 69.4058 10.2524 69.4058 12.699C69.4058 15.1689 68.2152 16.1942 66.2076 16.1942Z" fill="#6D6AFE"/>
<path d="M75.435 20.2718H80.6409V13.9573C80.6876 11.0214 82.0182 9.32039 86.6638 9.32039V4.66019C83.8624 4.66019 81.8781 5.63883 80.6409 7.1068V5.12621H75.435V20.2718Z" fill="#6D6AFE"/>
<path d="M94.041 20.7379C95.7685 20.7379 97.3559 20.2485 98.6165 19.3631V20.2718H103.822V5.12621H98.6165V6.03495C97.3559 5.17281 95.7685 4.66019 94.041 4.66019C90.8895 4.66019 87.0143 6.45437 87.0143 12.699C87.0143 18.9437 90.8895 20.7379 94.041 20.7379ZM95.4183 16.1942C93.4107 16.1942 92.2201 15.1689 92.2201 12.699C92.2201 10.2524 93.4107 9.20388 95.4183 9.20388C97.2159 9.20388 98.6165 10.1359 98.6165 12.699C98.6165 15.2854 97.2159 16.1942 95.4183 16.1942Z" fill="#6D6AFE"/>
<path d="M105.113 20.2718H110.319V13.9573C110.365 11.0214 111.696 9.32039 116.341 9.32039V4.66019C113.54 4.66019 111.556 5.63883 110.319 7.1068V5.12621H105.113V20.2718Z" fill="#6D6AFE"/>
<path d="M128.294 5.12621V11.7204C127.734 12.3495 126.73 12.6058 125.563 12.6058C123.088 12.6058 122.365 11.8369 122.365 10.4155V5.12621H117.159V10.7883C117.159 14.9359 120.1 17.1728 124.186 17.1728C125.703 17.1728 127.104 16.8466 128.294 16.2874V16.8466C128.294 18.9204 127.5 19.666 125.446 19.666C123.742 19.666 122.925 19.1534 122.691 17.965H117.462C117.883 22.2524 120.194 24 125.446 24C131.166 24 133.5 21.9029 133.5 16.4505V5.12621H128.294Z" fill="#6D6AFE"/>
</g>
</g>
</svg>
