<svg width="19" height="18" viewBox="0 0 19 18" fill="none" xmlns="http://www.w3.org/2000/svg">
<g id="pen">
<path id="Stroke 1 (Stroke)" fill-rule="evenodd" clip-rule="evenodd" d="M12.8785 1.9083C13.3194 1.46742 14.0331 1.46742 14.474 1.9083L17.1716 4.60595C17.6125 5.04683 17.6125 5.7605 17.1716 6.20139L8.17572 15.1973C8.0931 15.2799 7.98592 15.3335 7.87025 15.35L3.7526 15.9382C3.58434 15.9623 3.41458 15.9057 3.2944 15.7855C3.17421 15.6653 3.11763 15.4956 3.14166 15.3273L3.7299 11.2097C3.74642 11.094 3.80002 10.9868 3.88263 10.9042L12.8785 1.9083ZM13.7103 2.67197C13.6912 2.65286 13.6613 2.65286 13.6422 2.67197L4.77359 11.5406L4.31263 14.7673L7.53933 14.3063L16.4079 5.43771C16.427 5.41859 16.427 5.38874 16.4079 5.36962L13.7103 2.67197Z" fill="#9FA6B2"/>
<path id="Stroke 3 (Stroke)" fill-rule="evenodd" clip-rule="evenodd" d="M15.8229 3.25704C16.0338 3.46792 16.0338 3.80983 15.8229 4.02071L8.76412 11.0795C8.55324 11.2904 8.21133 11.2904 8.00045 11.0795C7.78956 10.8687 7.78956 10.5267 8.00045 10.3159L15.0593 3.25704C15.2702 3.04616 15.6121 3.04616 15.8229 3.25704Z" fill="#9FA6B2"/>
<path id="Stroke 5 (Stroke)" fill-rule="evenodd" clip-rule="evenodd" d="M3.88277 10.9043C4.09365 10.6934 4.43556 10.6934 4.64645 10.9043L8.17586 14.4337C8.38674 14.6446 8.38674 14.9865 8.17586 15.1973C7.96498 15.4082 7.62307 15.4082 7.41218 15.1973L3.88277 11.6679C3.67189 11.457 3.67189 11.1151 3.88277 10.9043Z" fill="#9FA6B2"/>
</g>
</svg>
