<svg width="18" height="19" viewBox="0 0 18 19" fill="none" xmlns="http://www.w3.org/2000/svg">
<g id="pen">
<path id="Stroke 1 (Stroke)" fill-rule="evenodd" clip-rule="evenodd" d="M12.3788 2.40831C12.8196 1.96743 13.5333 1.96743 13.9742 2.40831L16.6718 5.10596C17.1127 5.54684 17.1127 6.26051 16.6718 6.7014L7.67596 15.6973C7.59335 15.7799 7.48616 15.8335 7.37049 15.85L3.25285 16.4383C3.08459 16.4623 2.91483 16.4057 2.79464 16.2855C2.67446 16.1653 2.61787 15.9956 2.64191 15.8273L3.23014 11.7097C3.24667 11.594 3.30026 11.4868 3.38288 11.4042L12.3788 2.40831ZM13.2105 3.17199C13.1914 3.15287 13.1616 3.15287 13.1424 3.17199L4.27383 12.0406L3.81288 15.2673L7.03957 14.8063L15.9082 5.93772C15.9273 5.91861 15.9273 5.88875 15.9082 5.86963L13.2105 3.17199Z" fill="#9FA6B2"/>
<path id="Stroke 3 (Stroke)" fill-rule="evenodd" clip-rule="evenodd" d="M15.3229 3.75709C15.5338 3.96798 15.5338 4.30988 15.3229 4.52077L8.26412 11.5796C8.05324 11.7905 7.71133 11.7905 7.50045 11.5796C7.28956 11.3687 7.28956 11.0268 7.50045 10.8159L14.5593 3.75709C14.7702 3.54621 15.1121 3.54621 15.3229 3.75709Z" fill="#9FA6B2"/>
<path id="Stroke 5 (Stroke)" fill-rule="evenodd" clip-rule="evenodd" d="M3.38302 11.4042C3.5939 11.1933 3.93581 11.1933 4.14669 11.4042L7.6761 14.9336C7.88699 15.1445 7.88699 15.4864 7.6761 15.6973C7.46522 15.9082 7.12331 15.9082 6.91243 15.6973L3.38302 12.1679C3.17213 11.957 3.17213 11.6151 3.38302 11.4042Z" fill="#9FA6B2"/>
</g>
</svg>
