<svg xmlns="http://www.w3.org/2000/svg" width="16" height="16" fill="none"><path fill="#fff" d="M0 0h16v16H0z"/><path fill="#373740" d="m7.876 5.364 2.306 2.298v-.117A2.182 2.182 0 0 0 8 5.364h-.124Zm-3.127.581 1.127 1.128a2.004 2.004 0 0 0-.058.472A2.182 2.182 0 0 0 8 9.727c.16 0 .32-.022.473-.058L9.6 10.796a3.605 3.605 0 0 1-1.6.386 3.637 3.637 0 0 1-3.636-3.637c0-.574.145-1.112.385-1.6ZM.727 1.924l1.658 1.658.328.327A8.606 8.606 0 0 0 0 7.545C1.258 10.738 4.364 13 8 13a8.565 8.565 0 0 0 3.185-.61l.313.304 2.124 2.124.924-.923L1.65 1M8 3.91a3.636 3.636 0 0 1 3.636 3.635c0 .466-.094.917-.261 1.324L13.505 11A8.613 8.613 0 0 0 16 7.545c-1.258-3.192-4.364-5.454-8-5.454a8.616 8.616 0 0 0-2.91.509l1.58 1.564c.414-.16.857-.255 1.33-.255Z"/></svg>