<svg width="400" height="60" viewBox="0 0 400 60" fill="none" xmlns="http://www.w3.org/2000/svg">
<rect x="0.5" y="0.5" width="399" height="59" rx="7.5" fill="white"/>
<rect x="0.5" y="0.5" width="399" height="59" rx="7.5" stroke="#CCD5E3"/>
<path d="M17.4219 24.6875V36H16.0781V24.6875H17.4219ZM19.5625 36V27.5156H20.9062V36H19.5625ZM19.2969 25.2188C19.2891 24.7188 19.7188 24.3203 20.2344 24.3281C20.75 24.3203 21.1797 24.7188 21.1875 25.2188C21.1797 25.7109 20.75 26.1094 20.2344 26.1094C19.7188 26.1094 19.2891 25.7109 19.2969 25.2188ZM24.3906 30.9062V36H23.0469V27.5156H24.3438V28.8438H24.4531C24.8516 27.9766 25.6484 27.4062 26.9375 27.4062C28.6562 27.4062 29.8047 28.4531 29.7969 30.6094V36H28.4531V30.7031C28.4531 29.3906 27.7344 28.6094 26.5312 28.6094C25.2969 28.6094 24.3906 29.4375 24.3906 30.9062ZM31.9531 36V24.6875H33.2969V31.2656H33.4531L37.125 27.5156H38.7812L35.2031 31.1484L39.0469 36H37.3438L34.1953 32L33.2969 32.8359V36H31.9531ZM40.3906 36V24.6875H41.7344V28.8594H41.8438C42.1328 28.4062 42.6406 27.4062 44.2969 27.4062C46.4219 27.4062 47.9141 29.0938 47.9219 31.7812C47.9141 34.4766 46.4219 36.1797 44.3125 36.1719C42.6875 36.1797 42.1328 35.1719 41.8438 34.7031H41.6875V36H40.3906ZM41.7031 31.75C41.7031 33.6562 42.5625 34.9688 44.1094 34.9688C45.7266 34.9688 46.5547 33.5547 46.5625 31.75C46.5547 29.9766 45.75 28.6094 44.1094 28.6094C42.5469 28.6094 41.7031 29.8672 41.7031 31.75ZM49.6719 36V27.5156H50.9688V28.8125H51.0625C51.3672 27.9531 52.25 27.3828 53.25 27.375C53.4531 27.3828 53.7969 27.3906 53.9531 27.4062V28.7656C53.8516 28.7422 53.4922 28.6719 53.1406 28.6719C51.9219 28.6719 51.0156 29.5156 51.0156 30.6562V36H49.6719ZM54.8438 33.5938C54.8438 31.6484 56.5625 31.2031 58.0312 31.0938C58.5781 31.0547 59.9453 30.9766 60.3281 30.9688V30.2812C60.3281 29.2031 59.6875 28.5781 58.4062 28.5781C57.3359 28.5781 56.6875 29.0703 56.5 29.7188H55.0938C55.2656 28.3516 56.5938 27.4062 58.4688 27.4062C59.5781 27.4062 61.6641 27.7344 61.6562 30.4062V36H60.3281V34.8438H60.2656C59.9844 35.4141 59.2109 36.1953 57.7344 36.2031C56.125 36.1953 54.8438 35.25 54.8438 33.5938ZM56.1875 33.6562C56.1953 34.5547 56.9375 35.0078 57.9688 35C59.4844 35.0078 60.3281 33.9922 60.3281 32.9219V32.0703C59.9297 32.0938 58.5938 32.1953 58.1875 32.2188C56.9688 32.2969 56.1953 32.7266 56.1875 33.6562ZM63.8125 36V27.5156H65.1094V28.8125H65.2031C65.5078 27.9531 66.3906 27.3828 67.3906 27.375C67.5938 27.3828 67.9375 27.3906 68.0938 27.4062V28.7656C67.9922 28.7422 67.6328 28.6719 67.2812 28.6719C66.0625 28.6719 65.1562 29.5156 65.1562 30.6562V36H63.8125ZM70.5312 39.1875C70.2422 39.1797 69.9531 39.1719 69.7812 39.1562V37.9531C69.9219 37.9688 70.2266 37.9766 70.4375 37.9844C70.9844 37.9766 71.4453 37.9453 71.8906 36.7031L72.1406 36.0625L69 27.5156H70.4688L72.7812 34.25H72.875L75.1875 27.5156H76.6562L73.0625 37.2188C72.5625 38.5547 71.7344 39.1797 70.5312 39.1875ZM78.125 36L78.1094 34.9688L81.9688 30.9062C83.3047 29.4844 83.9453 28.7188 83.9531 27.6719C83.9453 26.5078 82.9766 25.7578 81.7031 25.75C80.3516 25.7578 79.5078 26.6094 79.5 27.875H78.1719C78.1562 25.875 79.7031 24.5312 81.75 24.5312C83.8047 24.5312 85.2578 25.9141 85.2656 27.6719C85.2578 28.9375 84.6719 29.9219 82.6719 31.9844L80.0781 34.6562V34.75H85.4688V36H78.125ZM91.2188 36.1562C88.7109 36.1562 87.2578 34.0469 87.2656 30.3438C87.2578 26.6719 88.7266 24.5312 91.2188 24.5312C93.7031 24.5312 95.1719 26.6719 95.1719 30.3438C95.1719 34.0469 93.7266 36.1562 91.2188 36.1562ZM88.625 30.3438C88.6328 33.2734 89.5781 34.9062 91.2188 34.9062C92.8516 34.9062 93.8047 33.2734 93.7969 30.3438C93.8047 27.4141 92.8438 25.7578 91.2188 25.75C89.5938 25.7578 88.6328 27.4141 88.625 30.3438ZM97.0469 36L97.0312 34.9688L100.891 30.9062C102.227 29.4844 102.867 28.7188 102.875 27.6719C102.867 26.5078 101.898 25.7578 100.625 25.75C99.2734 25.7578 98.4297 26.6094 98.4219 27.875H97.0938C97.0781 25.875 98.625 24.5312 100.672 24.5312C102.727 24.5312 104.18 25.9141 104.188 27.6719C104.18 28.9375 103.594 29.9219 101.594 31.9844L99 34.6562V34.75H104.391V36H97.0469ZM110.344 36.1562C108.094 36.1562 106.477 34.9531 106.406 33.1562H107.828C107.906 34.2344 108.977 34.9062 110.328 34.9062C111.82 34.9062 112.898 34.1016 112.906 32.9219C112.898 31.6875 111.914 30.8203 110.156 30.8125H109.234V29.5781H110.156C111.531 29.5781 112.492 28.8047 112.484 27.6406C112.492 26.5078 111.664 25.7578 110.375 25.75C109.164 25.7578 108.062 26.4219 108 27.5312H106.641C106.711 25.7344 108.383 24.5312 110.391 24.5312C112.547 24.5312 113.859 25.9453 113.844 27.5625C113.859 28.8516 113.109 29.7891 111.922 30.125V30.2031C113.398 30.4297 114.289 31.4844 114.281 32.9219C114.289 34.7812 112.602 36.1562 110.344 36.1562Z" fill="#373740"/>
<rect width="16" height="16" transform="translate(369 22)" fill="white"/>
<path d="M377 28.2727C376.421 28.2727 375.866 28.5026 375.457 28.9118C375.048 29.3209 374.818 29.8759 374.818 30.4545C374.818 31.0332 375.048 31.5882 375.457 31.9973C375.866 32.4065 376.421 32.6364 377 32.6364C377.579 32.6364 378.134 32.4065 378.543 31.9973C378.952 31.5882 379.182 31.0332 379.182 30.4545C379.182 29.8759 378.952 29.3209 378.543 28.9118C378.134 28.5026 377.579 28.2727 377 28.2727ZM377 34.0909C376.036 34.0909 375.111 33.7078 374.429 33.0258C373.747 32.3439 373.364 31.419 373.364 30.4545C373.364 29.4901 373.747 28.5652 374.429 27.8832C375.111 27.2013 376.036 26.8182 377 26.8182C377.964 26.8182 378.889 27.2013 379.571 27.8832C380.253 28.5652 380.636 29.4901 380.636 30.4545C380.636 31.419 380.253 32.3439 379.571 33.0258C378.889 33.7078 377.964 34.0909 377 34.0909ZM377 25C373.364 25 370.258 27.2618 369 30.4545C370.258 33.6473 373.364 35.9091 377 35.9091C380.636 35.9091 383.742 33.6473 385 30.4545C383.742 27.2618 380.636 25 377 25Z" fill="#373740"/>
</svg>
