<svg xmlns="http://www.w3.org/2000/svg" width="18" height="19" fill="none"><g fill="#9FA6B2" fill-rule="evenodd" clip-rule="evenodd"><path d="M12.379 2.408c.44-.44 1.154-.44 1.595 0l2.698 2.698c.44.44.44 1.155 0 1.595l-8.996 8.996a.54.54 0 0 1-.306.153l-4.117.588a.54.54 0 0 1-.611-.61l.588-4.118a.54.54 0 0 1 .153-.306l8.996-8.996Zm.832.764a.048.048 0 0 0-.069 0l-8.868 8.869-.461 3.226 3.227-.46 8.868-8.87a.048.048 0 0 0 0-.067l-2.697-2.698Z"/><path d="M15.323 3.757a.54.54 0 0 1 0 .764l-7.059 7.058a.54.54 0 1 1-.764-.763l7.06-7.059a.54.54 0 0 1 .763 0ZM3.383 11.404a.54.54 0 0 1 .764 0l3.53 3.53a.54.54 0 1 1-.765.763l-3.529-3.53a.54.54 0 0 1 0-.763Z"/></g></svg>