<svg xmlns="http://www.w3.org/2000/svg" width="18" height="19" fill="none"><g fill="#9FA6B2" fill-rule="evenodd" clip-path="url(#a)" clip-rule="evenodd"><path d="M7.395 11.045a.675.675 0 0 1 0-.955l6.434-6.57h-3.461a.675.675 0 0 1 0-1.35h5.091c.373 0 .675.302.675.675v5.091a.675.675 0 1 1-1.35 0V4.475l-6.434 6.57a.675.675 0 0 1-.955 0Z"/><path d="M4.5 4.775c-.621 0-1.125.504-1.125 1.125V14c0 .621.504 1.125 1.125 1.125h8.1c.621 0 1.125-.504 1.125-1.125v-3.15a.675.675 0 0 1 1.35 0V14a2.475 2.475 0 0 1-2.475 2.475H4.5A2.475 2.475 0 0 1 2.025 14V5.9A2.475 2.475 0 0 1 4.5 3.425h3.15a.675.675 0 1 1 0 1.35H4.5Z"/></g><defs><clipPath id="a"><path fill="#fff" d="M0 .5h18v18H0z"/></clipPath></defs></svg>