<svg xmlns="http://www.w3.org/2000/svg" width="34" height="34" fill="none"><g clip-path="url(#a)"><path fill="#000" fill-opacity=".2" stroke="#fff" d="M16.91 2.376a.1.1 0 0 1 .18 0l4.024 8.616a1.1 1.1 0 0 0 .83.621l9.048 1.39a.1.1 0 0 1 .056.169L24.46 19.96a1.1 1.1 0 0 0-.297.942l1.55 9.55a.1.1 0 0 1-.148.103l-8.03-4.463a1.1 1.1 0 0 0-1.07 0l-8.03 4.463a.1.1 0 0 1-.148-.104l1.55-9.549a1.1 1.1 0 0 0-.297-.942l-6.588-6.788a.1.1 0 0 1 .056-.169l9.049-1.39a1.1 1.1 0 0 0 .83-.621l4.022-8.616Z"/></g><defs><clipPath id="a"><path fill="#fff" d="M0 0h34v34H0z"/></clipPath></defs></svg>